<svg width="381" height="242" viewBox="0 0 381 242" fill="none" xmlns="http://www.w3.org/2000/svg">
<rect x="0.5" y="0.5" width="380" height="241" rx="12.5" fill="#FDFDFF" stroke="#EBEBEB"/>
<path d="M39.04 37.48V38.56C39.04 40.56 38.4 42.18 37.12 43.42C35.84 44.66 34.1867 45.28 32.16 45.28C30 45.28 28.2067 44.58 26.78 43.18C25.3667 41.7667 24.66 40.0467 24.66 38.02C24.66 35.98 25.36 34.2533 26.76 32.84C28.1733 31.4267 29.92 30.72 32 30.72C33.3067 30.72 34.5 31.02 35.58 31.62C36.66 32.2067 37.5 32.9933 38.1 33.98L35.74 35.34C35.4067 34.7667 34.9 34.3 34.22 33.94C33.5533 33.58 32.8067 33.4 31.98 33.4C30.6467 33.4 29.5467 33.84 28.68 34.72C27.8267 35.5867 27.4 36.6867 27.4 38.02C27.4 39.34 27.8333 40.4333 28.7 41.3C29.58 42.1533 30.74 42.58 32.18 42.58C33.2467 42.58 34.1267 42.3467 34.82 41.88C35.5267 41.4 36.0067 40.7467 36.26 39.92H32.02V37.48H39.04ZM43.0631 41.06C43.4098 42.3133 44.3498 42.94 45.8831 42.94C46.8698 42.94 47.6165 42.6067 48.1231 41.94L50.2031 43.14C49.2165 44.5667 47.7631 45.28 45.8431 45.28C44.1898 45.28 42.8631 44.78 41.8631 43.78C40.8631 42.78 40.3631 41.52 40.3631 40C40.3631 38.4933 40.8565 37.24 41.8431 36.24C42.8298 35.2267 44.0965 34.72 45.6431 34.72C47.1098 34.72 48.3165 35.2267 49.2631 36.24C50.2231 37.2533 50.7031 38.5067 50.7031 40C50.7031 40.3333 50.6698 40.6867 50.6031 41.06H43.0631ZM43.0231 39.06H48.1231C47.9765 38.38 47.6698 37.8733 47.2031 37.54C46.7498 37.2067 46.2298 37.04 45.6431 37.04C44.9498 37.04 44.3765 37.22 43.9231 37.58C43.4698 37.9267 43.1698 38.42 43.0231 39.06ZM60.9461 43.76C59.9194 44.7733 58.6661 45.28 57.1861 45.28C55.7061 45.28 54.4528 44.7733 53.4261 43.76C52.4128 42.7333 51.9061 41.48 51.9061 40C51.9061 38.52 52.4128 37.2733 53.4261 36.26C54.4528 35.2333 55.7061 34.72 57.1861 34.72C58.6661 34.72 59.9194 35.2333 60.9461 36.26C61.9728 37.2733 62.4861 38.52 62.4861 40C62.4861 41.48 61.9728 42.7333 60.9461 43.76ZM55.2461 41.98C55.7661 42.5 56.4128 42.76 57.1861 42.76C57.9594 42.76 58.6061 42.5 59.1261 41.98C59.6461 41.46 59.9061 40.8 59.9061 40C59.9061 39.2 59.6461 38.54 59.1261 38.02C58.6061 37.5 57.9594 37.24 57.1861 37.24C56.4128 37.24 55.7661 37.5 55.2461 38.02C54.7394 38.54 54.4861 39.2 54.4861 40C54.4861 40.8 54.7394 41.46 55.2461 41.98Z" fill="#4F4F4F"/>
<path d="M283.175 42.156C281.911 42.156 280.863 41.74 280.031 40.908C279.199 40.068 278.783 39.032 278.783 37.8C278.783 36.568 279.199 35.536 280.031 34.704C280.863 33.864 281.911 33.444 283.175 33.444C283.935 33.444 284.635 33.624 285.275 33.984C285.923 34.344 286.427 34.832 286.787 35.448L285.587 36.144C285.363 35.728 285.035 35.4 284.603 35.16C284.179 34.912 283.703 34.788 283.175 34.788C282.279 34.788 281.551 35.072 280.991 35.64C280.439 36.208 280.163 36.928 280.163 37.8C280.163 38.672 280.439 39.392 280.991 39.96C281.551 40.528 282.279 40.812 283.175 40.812C283.703 40.812 284.183 40.692 284.615 40.452C285.047 40.204 285.371 39.872 285.587 39.456L286.787 40.14C286.435 40.756 285.935 41.248 285.287 41.616C284.647 41.976 283.943 42.156 283.175 42.156ZM290.67 42.156C289.79 42.156 289.042 41.852 288.426 41.244C287.81 40.636 287.502 39.888 287.502 39C287.502 38.112 287.81 37.364 288.426 36.756C289.042 36.148 289.79 35.844 290.67 35.844C291.558 35.844 292.306 36.148 292.914 36.756C293.53 37.364 293.838 38.112 293.838 39C293.838 39.888 293.53 40.636 292.914 41.244C292.306 41.852 291.558 42.156 290.67 42.156ZM289.338 40.356C289.698 40.716 290.142 40.896 290.67 40.896C291.198 40.896 291.642 40.716 292.002 40.356C292.362 39.996 292.542 39.544 292.542 39C292.542 38.456 292.362 38.004 292.002 37.644C291.642 37.284 291.198 37.104 290.67 37.104C290.142 37.104 289.698 37.284 289.338 37.644C288.978 38.004 288.798 38.456 288.798 39C288.798 39.544 288.978 39.996 289.338 40.356ZM299.054 36H300.35V42H299.054V41.232C298.662 41.848 298.042 42.156 297.194 42.156C296.506 42.156 295.95 41.936 295.526 41.496C295.102 41.056 294.89 40.452 294.89 39.684V36H296.186V39.552C296.186 40 296.306 40.344 296.546 40.584C296.786 40.824 297.114 40.944 297.53 40.944C297.986 40.944 298.354 40.804 298.634 40.524C298.914 40.236 299.054 39.8 299.054 39.216V36ZM305.021 35.844C305.709 35.844 306.265 36.064 306.689 36.504C307.113 36.944 307.325 37.548 307.325 38.316V42H306.029V38.448C306.029 38 305.909 37.656 305.669 37.416C305.429 37.176 305.101 37.056 304.685 37.056C304.229 37.056 303.861 37.2 303.581 37.488C303.301 37.768 303.161 38.2 303.161 38.784V42H301.865V36H303.161V36.768C303.553 36.152 304.173 35.844 305.021 35.844ZM312.069 37.248H310.581V40.128C310.581 40.376 310.637 40.556 310.749 40.668C310.861 40.772 311.025 40.832 311.241 40.848C311.465 40.856 311.741 40.852 312.069 40.836V42C311.077 42.12 310.365 42.036 309.933 41.748C309.501 41.452 309.285 40.912 309.285 40.128V37.248H308.181V36H309.285V34.704L310.581 34.32V36H312.069V37.248ZM314.599 37.008C314.927 36.264 315.543 35.892 316.447 35.892V37.296C315.951 37.264 315.519 37.384 315.151 37.656C314.783 37.92 314.599 38.36 314.599 38.976V42H313.303V36H314.599V37.008ZM321.566 36H322.946L320.642 42.192C320.066 43.744 319.09 44.48 317.714 44.4V43.188C318.122 43.212 318.45 43.124 318.698 42.924C318.946 42.732 319.15 42.428 319.31 42.012L319.37 41.892L316.826 36H318.242L320.03 40.356L321.566 36Z" fill="#4F4F4F"/>
<path d="M338.536 42.156C337.264 42.156 336.212 41.736 335.38 40.896C334.556 40.056 334.144 39.024 334.144 37.8C334.144 36.576 334.556 35.544 335.38 34.704C336.212 33.864 337.264 33.444 338.536 33.444C339.304 33.444 340.008 33.628 340.648 33.996C341.296 34.364 341.8 34.86 342.16 35.484L341.188 36.048C340.948 35.584 340.588 35.216 340.108 34.944C339.636 34.664 339.112 34.524 338.536 34.524C337.568 34.524 336.776 34.836 336.16 35.46C335.552 36.084 335.248 36.864 335.248 37.8C335.248 38.728 335.552 39.504 336.16 40.128C336.776 40.752 337.568 41.064 338.536 41.064C339.112 41.064 339.636 40.928 340.108 40.656C340.588 40.376 340.948 40.008 341.188 39.552L342.16 40.104C341.808 40.728 341.308 41.228 340.66 41.604C340.012 41.972 339.304 42.156 338.536 42.156ZM343.879 34.908C343.679 34.908 343.511 34.84 343.375 34.704C343.239 34.568 343.171 34.404 343.171 34.212C343.171 34.02 343.239 33.856 343.375 33.72C343.511 33.576 343.679 33.504 343.879 33.504C344.071 33.504 344.235 33.576 344.371 33.72C344.507 33.856 344.575 34.02 344.575 34.212C344.575 34.404 344.507 34.568 344.371 34.704C344.235 34.84 344.071 34.908 343.879 34.908ZM343.351 42V36H344.395V42H343.351ZM349.251 37.008H347.655V40.26C347.655 40.556 347.711 40.768 347.823 40.896C347.943 41.016 348.123 41.08 348.363 41.088C348.603 41.088 348.899 41.08 349.251 41.064V42C348.339 42.12 347.671 42.048 347.247 41.784C346.823 41.512 346.611 41.004 346.611 40.26V37.008H345.423V36H346.611V34.632L347.655 34.32V36H349.251V37.008ZM354.804 36H355.92L353.472 42.372C353.216 43.052 352.856 43.568 352.392 43.92C351.936 44.28 351.408 44.44 350.808 44.4V43.428C351.544 43.484 352.084 43.076 352.428 42.204L352.536 41.976L349.92 36H351.036L353.076 40.704L354.804 36Z" fill="#979797"/>
<rect x="217" y="95" width="140" height="10" rx="5" fill="#EFF3F9"/>
<rect x="217" y="95" width="13" height="10" rx="5" fill="#7F7FD5"/>
<path d="M221.848 84.156C220.576 84.156 219.524 83.736 218.692 82.896C217.868 82.056 217.456 81.024 217.456 79.8C217.456 78.576 217.868 77.544 218.692 76.704C219.524 75.864 220.576 75.444 221.848 75.444C222.616 75.444 223.32 75.628 223.96 75.996C224.608 76.364 225.112 76.86 225.472 77.484L224.5 78.048C224.26 77.584 223.9 77.216 223.42 76.944C222.948 76.664 222.424 76.524 221.848 76.524C220.88 76.524 220.088 76.836 219.472 77.46C218.864 78.084 218.56 78.864 218.56 79.8C218.56 80.728 218.864 81.504 219.472 82.128C220.088 82.752 220.88 83.064 221.848 83.064C222.424 83.064 222.948 82.928 223.42 82.656C223.9 82.376 224.26 82.008 224.5 81.552L225.472 82.104C225.12 82.728 224.62 83.228 223.972 83.604C223.324 83.972 222.616 84.156 221.848 84.156ZM229.651 77.844C230.355 77.844 230.919 78.068 231.343 78.516C231.767 78.956 231.979 79.556 231.979 80.316V84H230.935V80.376C230.935 79.888 230.803 79.512 230.539 79.248C230.275 78.976 229.911 78.84 229.447 78.84C228.927 78.84 228.507 79.004 228.187 79.332C227.867 79.652 227.707 80.148 227.707 80.82V84H226.663V75.6H227.707V78.864C228.131 78.184 228.779 77.844 229.651 77.844ZM233.965 76.908C233.765 76.908 233.597 76.84 233.461 76.704C233.325 76.568 233.257 76.404 233.257 76.212C233.257 76.02 233.325 75.856 233.461 75.72C233.597 75.576 233.765 75.504 233.965 75.504C234.157 75.504 234.321 75.576 234.457 75.72C234.593 75.856 234.661 76.02 234.661 76.212C234.661 76.404 234.593 76.568 234.457 76.704C234.321 76.84 234.157 76.908 233.965 76.908ZM233.437 84V78H234.481V84H233.437ZM239.061 77.844C239.765 77.844 240.329 78.068 240.753 78.516C241.177 78.956 241.389 79.556 241.389 80.316V84H240.345V80.376C240.345 79.888 240.213 79.512 239.949 79.248C239.685 78.976 239.321 78.84 238.857 78.84C238.337 78.84 237.917 79.004 237.597 79.332C237.277 79.652 237.117 80.148 237.117 80.82V84H236.073V78H237.117V78.864C237.541 78.184 238.189 77.844 239.061 77.844ZM247.815 78H248.859V84H247.815V82.968C247.295 83.76 246.539 84.156 245.547 84.156C244.707 84.156 243.991 83.852 243.399 83.244C242.807 82.628 242.511 81.88 242.511 81C242.511 80.12 242.807 79.376 243.399 78.768C243.991 78.152 244.707 77.844 245.547 77.844C246.539 77.844 247.295 78.24 247.815 79.032V78ZM245.679 83.148C246.287 83.148 246.795 82.944 247.203 82.536C247.611 82.12 247.815 81.608 247.815 81C247.815 80.392 247.611 79.884 247.203 79.476C246.795 79.06 246.287 78.852 245.679 78.852C245.079 78.852 244.575 79.06 244.167 79.476C243.759 79.884 243.555 80.392 243.555 81C243.555 81.608 243.759 82.12 244.167 82.536C244.575 82.944 245.079 83.148 245.679 83.148Z" fill="#4F4F4F"/>
<path d="M331.996 82.968C331.428 83.76 330.632 84.156 329.608 84.156C328.584 84.156 327.788 83.76 327.22 82.968C326.652 82.176 326.368 81.12 326.368 79.8C326.368 78.48 326.652 77.424 327.22 76.632C327.788 75.84 328.584 75.444 329.608 75.444C330.632 75.444 331.428 75.84 331.996 76.632C332.564 77.424 332.848 78.48 332.848 79.8C332.848 81.12 332.564 82.176 331.996 82.968ZM328.036 82.212C328.404 82.78 328.928 83.064 329.608 83.064C330.288 83.064 330.812 82.78 331.18 82.212C331.556 81.644 331.744 80.84 331.744 79.8C331.744 78.76 331.556 77.956 331.18 77.388C330.812 76.812 330.288 76.524 329.608 76.524C328.928 76.524 328.404 76.808 328.036 77.376C327.668 77.944 327.484 78.752 327.484 79.8C327.484 80.84 327.668 81.644 328.036 82.212ZM335.375 82.764L334.595 85.68H333.695L334.175 82.764H335.375ZM336.491 84V83.088L339.455 80.064C340.247 79.272 340.643 78.592 340.643 78.024C340.643 77.552 340.499 77.184 340.211 76.92C339.923 76.656 339.571 76.524 339.155 76.524C338.363 76.524 337.787 76.9 337.427 77.652L336.491 77.1C336.755 76.556 337.119 76.144 337.583 75.864C338.055 75.584 338.575 75.444 339.143 75.444C339.847 75.444 340.459 75.676 340.979 76.14C341.499 76.604 341.759 77.228 341.759 78.012C341.759 78.86 341.259 79.784 340.259 80.784L338.111 82.92H341.915V84H336.491ZM345.404 78.504C346.244 78.504 346.936 78.768 347.48 79.296C348.024 79.816 348.296 80.492 348.296 81.324C348.296 82.156 348.024 82.836 347.48 83.364C346.936 83.892 346.244 84.156 345.404 84.156C344.556 84.156 343.86 83.892 343.316 83.364C342.78 82.836 342.512 82.156 342.512 81.324C342.512 80.676 342.68 80.116 343.016 79.644L345.716 75.6H346.988L345.008 78.528C345.184 78.512 345.316 78.504 345.404 78.504ZM344.108 82.608C344.444 82.928 344.876 83.088 345.404 83.088C345.932 83.088 346.36 82.928 346.688 82.608C347.024 82.28 347.192 81.852 347.192 81.324C347.192 80.796 347.024 80.372 346.688 80.052C346.36 79.732 345.932 79.572 345.404 79.572C344.868 79.572 344.436 79.732 344.108 80.052C343.78 80.372 343.616 80.796 343.616 81.324C343.616 81.852 343.78 82.28 344.108 82.608ZM350.826 79.164C350.282 79.164 349.83 78.984 349.47 78.624C349.11 78.264 348.93 77.824 348.93 77.304C348.93 76.792 349.11 76.356 349.47 75.996C349.838 75.628 350.29 75.444 350.826 75.444C351.37 75.444 351.822 75.624 352.182 75.984C352.542 76.344 352.722 76.784 352.722 77.304C352.722 77.824 352.542 78.264 352.182 78.624C351.83 78.984 351.378 79.164 350.826 79.164ZM350.13 78.012C350.314 78.196 350.546 78.288 350.826 78.288C351.106 78.288 351.334 78.192 351.51 78C351.694 77.808 351.786 77.576 351.786 77.304C351.786 77.032 351.694 76.804 351.51 76.62C351.334 76.428 351.106 76.332 350.826 76.332C350.546 76.332 350.314 76.428 350.13 76.62C349.954 76.804 349.866 77.032 349.866 77.304C349.866 77.584 349.954 77.82 350.13 78.012ZM349.494 82.812L355.074 76.572L355.662 76.896L350.07 83.148L349.494 82.812ZM355.806 83.604C355.446 83.964 354.994 84.144 354.45 84.144C353.906 84.144 353.454 83.964 353.094 83.604C352.734 83.244 352.554 82.804 352.554 82.284C352.554 81.764 352.734 81.324 353.094 80.964C353.454 80.604 353.906 80.424 354.45 80.424C354.994 80.424 355.446 80.604 355.806 80.964C356.166 81.324 356.346 81.764 356.346 82.284C356.346 82.804 356.166 83.244 355.806 83.604ZM353.754 82.98C353.938 83.164 354.17 83.256 354.45 83.256C354.73 83.256 354.958 83.164 355.134 82.98C355.318 82.788 355.41 82.556 355.41 82.284C355.41 82.012 355.318 81.784 355.134 81.6C354.958 81.408 354.73 81.312 354.45 81.312C354.17 81.312 353.938 81.408 353.754 81.6C353.578 81.784 353.49 82.012 353.49 82.284C353.49 82.556 353.578 82.788 353.754 82.98Z" fill="#979797"/>
<rect x="25" y="150" width="140" height="10" rx="5" fill="#EFF3F9"/>
<rect x="25" y="150" width="5" height="10" rx="2.5" fill="#7F7FD5"/>
<path d="M31.216 137.352C30.632 137.888 29.876 138.156 28.948 138.156C28.02 138.156 27.26 137.888 26.668 137.352C26.084 136.808 25.792 136.084 25.792 135.18V129.6H26.908V135.132C26.908 135.724 27.084 136.196 27.436 136.548C27.788 136.892 28.292 137.064 28.948 137.064C29.604 137.064 30.108 136.892 30.46 136.548C30.812 136.196 30.988 135.724 30.988 135.132V129.6H32.092V135.18C32.092 136.084 31.8 136.808 31.216 137.352ZM38.7664 138H37.4704L34.7344 135.156V138H33.6904V129.6H34.7344V134.652L37.3264 132H38.6704L35.8024 134.904L38.7664 138ZM40.7813 133.008C41.1253 132.264 41.7493 131.892 42.6533 131.892V132.984C42.1413 132.96 41.7013 133.096 41.3333 133.392C40.9653 133.688 40.7813 134.164 40.7813 134.82V138H39.7373V132H40.7813V133.008ZM48.3147 132H49.3587V138H48.3147V136.968C47.7947 137.76 47.0387 138.156 46.0467 138.156C45.2067 138.156 44.4907 137.852 43.8987 137.244C43.3067 136.628 43.0107 135.88 43.0107 135C43.0107 134.12 43.3067 133.376 43.8987 132.768C44.4907 132.152 45.2067 131.844 46.0467 131.844C47.0387 131.844 47.7947 132.24 48.3147 133.032V132ZM46.1787 137.148C46.7867 137.148 47.2947 136.944 47.7027 136.536C48.1107 136.12 48.3147 135.608 48.3147 135C48.3147 134.392 48.1107 133.884 47.7027 133.476C47.2947 133.06 46.7867 132.852 46.1787 132.852C45.5787 132.852 45.0747 133.06 44.6667 133.476C44.2587 133.884 44.0547 134.392 44.0547 135C44.0547 135.608 44.2587 136.12 44.6667 136.536C45.0747 136.944 45.5787 137.148 46.1787 137.148ZM51.4684 130.908C51.2684 130.908 51.1004 130.84 50.9644 130.704C50.8284 130.568 50.7604 130.404 50.7604 130.212C50.7604 130.02 50.8284 129.856 50.9644 129.72C51.1004 129.576 51.2684 129.504 51.4684 129.504C51.6604 129.504 51.8244 129.576 51.9604 129.72C52.0964 129.856 52.1644 130.02 52.1644 130.212C52.1644 130.404 52.0964 130.568 51.9604 130.704C51.8244 130.84 51.6604 130.908 51.4684 130.908ZM50.9404 138V132H51.9844V138H50.9404ZM56.5652 131.844C57.2692 131.844 57.8332 132.068 58.2572 132.516C58.6812 132.956 58.8932 133.556 58.8932 134.316V138H57.8492V134.376C57.8492 133.888 57.7172 133.512 57.4532 133.248C57.1892 132.976 56.8252 132.84 56.3612 132.84C55.8412 132.84 55.4212 133.004 55.1012 133.332C54.7812 133.652 54.6212 134.148 54.6212 134.82V138H53.5772V132H54.6212V132.864C55.0452 132.184 55.6932 131.844 56.5652 131.844ZM61.0826 135.48C61.1866 136.016 61.4306 136.432 61.8146 136.728C62.2066 137.024 62.6866 137.172 63.2546 137.172C64.0466 137.172 64.6226 136.88 64.9826 136.296L65.8706 136.8C65.2866 137.704 64.4066 138.156 63.2306 138.156C62.2786 138.156 61.5026 137.86 60.9026 137.268C60.3106 136.668 60.0146 135.912 60.0146 135C60.0146 134.096 60.3066 133.344 60.8906 132.744C61.4746 132.144 62.2306 131.844 63.1586 131.844C64.0386 131.844 64.7546 132.156 65.3066 132.78C65.8666 133.396 66.1466 134.14 66.1466 135.012C66.1466 135.164 66.1346 135.32 66.1106 135.48H61.0826ZM63.1586 132.828C62.5986 132.828 62.1346 132.988 61.7666 133.308C61.3986 133.62 61.1706 134.04 61.0826 134.568H65.0906C65.0026 134 64.7786 133.568 64.4186 133.272C64.0586 132.976 63.6386 132.828 63.1586 132.828Z" fill="#4F4F4F"/>
<path d="M138.672 136.968C138.104 137.76 137.308 138.156 136.284 138.156C135.26 138.156 134.464 137.76 133.896 136.968C133.328 136.176 133.044 135.12 133.044 133.8C133.044 132.48 133.328 131.424 133.896 130.632C134.464 129.84 135.26 129.444 136.284 129.444C137.308 129.444 138.104 129.84 138.672 130.632C139.24 131.424 139.524 132.48 139.524 133.8C139.524 135.12 139.24 136.176 138.672 136.968ZM134.712 136.212C135.08 136.78 135.604 137.064 136.284 137.064C136.964 137.064 137.488 136.78 137.856 136.212C138.232 135.644 138.42 134.84 138.42 133.8C138.42 132.76 138.232 131.956 137.856 131.388C137.488 130.812 136.964 130.524 136.284 130.524C135.604 130.524 135.08 130.808 134.712 131.376C134.344 131.944 134.16 132.752 134.16 133.8C134.16 134.84 134.344 135.644 134.712 136.212ZM142.051 136.764L141.271 139.68H140.371L140.851 136.764H142.051ZM143.166 138V137.088L146.13 134.064C146.922 133.272 147.318 132.592 147.318 132.024C147.318 131.552 147.174 131.184 146.886 130.92C146.598 130.656 146.246 130.524 145.83 130.524C145.038 130.524 144.462 130.9 144.102 131.652L143.166 131.1C143.43 130.556 143.794 130.144 144.258 129.864C144.73 129.584 145.25 129.444 145.818 129.444C146.522 129.444 147.134 129.676 147.654 130.14C148.174 130.604 148.434 131.228 148.434 132.012C148.434 132.86 147.934 133.784 146.934 134.784L144.786 136.92H148.59V138H143.166ZM155.113 136.968C154.545 137.76 153.749 138.156 152.725 138.156C151.701 138.156 150.905 137.76 150.337 136.968C149.769 136.176 149.485 135.12 149.485 133.8C149.485 132.48 149.769 131.424 150.337 130.632C150.905 129.84 151.701 129.444 152.725 129.444C153.749 129.444 154.545 129.84 155.113 130.632C155.681 131.424 155.965 132.48 155.965 133.8C155.965 135.12 155.681 136.176 155.113 136.968ZM151.153 136.212C151.521 136.78 152.045 137.064 152.725 137.064C153.405 137.064 153.929 136.78 154.297 136.212C154.673 135.644 154.861 134.84 154.861 133.8C154.861 132.76 154.673 131.956 154.297 131.388C153.929 130.812 153.405 130.524 152.725 130.524C152.045 130.524 151.521 130.808 151.153 131.376C150.785 131.944 150.601 132.752 150.601 133.8C150.601 134.84 150.785 135.644 151.153 136.212ZM158.826 133.164C158.282 133.164 157.83 132.984 157.47 132.624C157.11 132.264 156.93 131.824 156.93 131.304C156.93 130.792 157.11 130.356 157.47 129.996C157.838 129.628 158.29 129.444 158.826 129.444C159.37 129.444 159.822 129.624 160.182 129.984C160.542 130.344 160.722 130.784 160.722 131.304C160.722 131.824 160.542 132.264 160.182 132.624C159.83 132.984 159.378 133.164 158.826 133.164ZM158.13 132.012C158.314 132.196 158.546 132.288 158.826 132.288C159.106 132.288 159.334 132.192 159.51 132C159.694 131.808 159.786 131.576 159.786 131.304C159.786 131.032 159.694 130.804 159.51 130.62C159.334 130.428 159.106 130.332 158.826 130.332C158.546 130.332 158.314 130.428 158.13 130.62C157.954 130.804 157.866 131.032 157.866 131.304C157.866 131.584 157.954 131.82 158.13 132.012ZM157.494 136.812L163.074 130.572L163.662 130.896L158.07 137.148L157.494 136.812ZM163.806 137.604C163.446 137.964 162.994 138.144 162.45 138.144C161.906 138.144 161.454 137.964 161.094 137.604C160.734 137.244 160.554 136.804 160.554 136.284C160.554 135.764 160.734 135.324 161.094 134.964C161.454 134.604 161.906 134.424 162.45 134.424C162.994 134.424 163.446 134.604 163.806 134.964C164.166 135.324 164.346 135.764 164.346 136.284C164.346 136.804 164.166 137.244 163.806 137.604ZM161.754 136.98C161.938 137.164 162.17 137.256 162.45 137.256C162.73 137.256 162.958 137.164 163.134 136.98C163.318 136.788 163.41 136.556 163.41 136.284C163.41 136.012 163.318 135.784 163.134 135.6C162.958 135.408 162.73 135.312 162.45 135.312C162.17 135.312 161.938 135.408 161.754 135.6C161.578 135.784 161.49 136.012 161.49 136.284C161.49 136.556 161.578 136.788 161.754 136.98Z" fill="#979797"/>
<rect x="25" y="96" width="140" height="10" rx="5" fill="#EFF3F9"/>
<rect x="25" y="96" width="128" height="10" rx="5" fill="#7F7FD5"/>
<path d="M30.88 84L28.996 80.784H27.016V84H25.9V75.6H29.26C29.98 75.6 30.596 75.856 31.108 76.368C31.62 76.872 31.876 77.484 31.876 78.204C31.876 78.748 31.712 79.244 31.384 79.692C31.064 80.14 30.648 80.456 30.136 80.64L32.116 84H30.88ZM27.016 76.644V79.776H29.26C29.676 79.776 30.028 79.624 30.316 79.32C30.612 79.008 30.76 78.636 30.76 78.204C30.76 77.772 30.612 77.404 30.316 77.1C30.028 76.796 29.676 76.644 29.26 76.644H27.016ZM37.139 78H38.183V84H37.139V83.136C36.715 83.816 36.067 84.156 35.195 84.156C34.491 84.156 33.927 83.936 33.503 83.496C33.079 83.048 32.867 82.444 32.867 81.684V78H33.911V81.624C33.911 82.112 34.043 82.492 34.307 82.764C34.571 83.028 34.935 83.16 35.399 83.16C35.919 83.16 36.339 83 36.659 82.68C36.979 82.352 37.139 81.852 37.139 81.18V78ZM40.6608 79.62C40.6608 79.852 40.7768 80.04 41.0088 80.184C41.2408 80.32 41.5208 80.432 41.8488 80.52C42.1768 80.6 42.5048 80.696 42.8328 80.808C43.1608 80.912 43.4408 81.096 43.6728 81.36C43.9048 81.616 44.0208 81.948 44.0208 82.356C44.0208 82.9 43.8088 83.336 43.3848 83.664C42.9688 83.992 42.4328 84.156 41.7768 84.156C41.1928 84.156 40.6928 84.028 40.2768 83.772C39.8608 83.516 39.5648 83.176 39.3888 82.752L40.2888 82.236C40.3848 82.524 40.5648 82.752 40.8288 82.92C41.0928 83.088 41.4088 83.172 41.7768 83.172C42.1208 83.172 42.4048 83.108 42.6288 82.98C42.8528 82.844 42.9648 82.636 42.9648 82.356C42.9648 82.124 42.8488 81.94 42.6168 81.804C42.3848 81.66 42.1048 81.548 41.7768 81.468C41.4488 81.38 41.1208 81.28 40.7928 81.168C40.4648 81.056 40.1848 80.872 39.9528 80.616C39.7208 80.36 39.6048 80.032 39.6048 79.632C39.6048 79.112 39.8048 78.684 40.2048 78.348C40.6128 78.012 41.1208 77.844 41.7288 77.844C42.2168 77.844 42.6488 77.956 43.0248 78.18C43.4088 78.396 43.6968 78.7 43.8888 79.092L43.0128 79.584C42.7968 79.072 42.3688 78.816 41.7288 78.816C41.4328 78.816 41.1808 78.888 40.9728 79.032C40.7648 79.168 40.6608 79.364 40.6608 79.62ZM45.7818 79.62C45.7818 79.852 45.8978 80.04 46.1298 80.184C46.3618 80.32 46.6418 80.432 46.9698 80.52C47.2978 80.6 47.6258 80.696 47.9538 80.808C48.2818 80.912 48.5618 81.096 48.7938 81.36C49.0258 81.616 49.1418 81.948 49.1418 82.356C49.1418 82.9 48.9298 83.336 48.5058 83.664C48.0898 83.992 47.5538 84.156 46.8978 84.156C46.3138 84.156 45.8138 84.028 45.3978 83.772C44.9818 83.516 44.6858 83.176 44.5098 82.752L45.4098 82.236C45.5058 82.524 45.6858 82.752 45.9498 82.92C46.2138 83.088 46.5298 83.172 46.8978 83.172C47.2418 83.172 47.5258 83.108 47.7498 82.98C47.9738 82.844 48.0858 82.636 48.0858 82.356C48.0858 82.124 47.9698 81.94 47.7378 81.804C47.5058 81.66 47.2258 81.548 46.8978 81.468C46.5698 81.38 46.2418 81.28 45.9138 81.168C45.5858 81.056 45.3058 80.872 45.0738 80.616C44.8418 80.36 44.7258 80.032 44.7258 79.632C44.7258 79.112 44.9258 78.684 45.3258 78.348C45.7338 78.012 46.2418 77.844 46.8498 77.844C47.3378 77.844 47.7698 77.956 48.1458 78.18C48.5298 78.396 48.8178 78.7 49.0098 79.092L48.1338 79.584C47.9178 79.072 47.4898 78.816 46.8498 78.816C46.5538 78.816 46.3018 78.888 46.0938 79.032C45.8858 79.168 45.7818 79.364 45.7818 79.62ZM50.8473 76.908C50.6473 76.908 50.4793 76.84 50.3433 76.704C50.2073 76.568 50.1393 76.404 50.1393 76.212C50.1393 76.02 50.2073 75.856 50.3433 75.72C50.4793 75.576 50.6473 75.504 50.8473 75.504C51.0393 75.504 51.2033 75.576 51.3393 75.72C51.4753 75.856 51.5433 76.02 51.5433 76.212C51.5433 76.404 51.4753 76.568 51.3393 76.704C51.2033 76.84 51.0393 76.908 50.8473 76.908ZM50.3193 84V78H51.3633V84H50.3193ZM57.9241 78H58.9681V84H57.9241V82.968C57.4041 83.76 56.6481 84.156 55.6561 84.156C54.8161 84.156 54.1001 83.852 53.5081 83.244C52.9161 82.628 52.6201 81.88 52.6201 81C52.6201 80.12 52.9161 79.376 53.5081 78.768C54.1001 78.152 54.8161 77.844 55.6561 77.844C56.6481 77.844 57.4041 78.24 57.9241 79.032V78ZM55.7881 83.148C56.3961 83.148 56.9041 82.944 57.3121 82.536C57.7201 82.12 57.9241 81.608 57.9241 81C57.9241 80.392 57.7201 79.884 57.3121 79.476C56.9041 79.06 56.3961 78.852 55.7881 78.852C55.1881 78.852 54.6841 79.06 54.2761 79.476C53.8681 79.884 53.6641 80.392 53.6641 81C53.6641 81.608 53.8681 82.12 54.2761 82.536C54.6841 82.944 55.1881 83.148 55.7881 83.148Z" fill="#4F4F4F"/>
<path d="M149.804 78.264C149.804 78.912 149.632 79.476 149.288 79.956H149.3L146.588 84H145.328L147.32 81.06C147.144 81.076 147.008 81.084 146.912 81.084C146.064 81.084 145.368 80.824 144.824 80.304C144.288 79.776 144.02 79.096 144.02 78.264C144.02 77.432 144.288 76.756 144.824 76.236C145.368 75.708 146.064 75.444 146.912 75.444C147.76 75.444 148.452 75.708 148.988 76.236C149.532 76.756 149.804 77.432 149.804 78.264ZM145.616 76.992C145.288 77.312 145.124 77.736 145.124 78.264C145.124 78.792 145.288 79.22 145.616 79.548C145.952 79.868 146.384 80.028 146.912 80.028C147.44 80.028 147.868 79.868 148.196 79.548C148.532 79.22 148.7 78.792 148.7 78.264C148.7 77.736 148.536 77.312 148.208 76.992C147.88 76.672 147.448 76.512 146.912 76.512C146.384 76.512 145.952 76.672 145.616 76.992ZM156.614 81.36V82.404H155.594V84H154.478V82.404H150.194V81.36L153.206 75.6H154.406L151.394 81.36H154.478V78.984H155.594V81.36H156.614ZM158.826 79.164C158.282 79.164 157.83 78.984 157.47 78.624C157.11 78.264 156.93 77.824 156.93 77.304C156.93 76.792 157.11 76.356 157.47 75.996C157.838 75.628 158.29 75.444 158.826 75.444C159.37 75.444 159.822 75.624 160.182 75.984C160.542 76.344 160.722 76.784 160.722 77.304C160.722 77.824 160.542 78.264 160.182 78.624C159.83 78.984 159.378 79.164 158.826 79.164ZM158.13 78.012C158.314 78.196 158.546 78.288 158.826 78.288C159.106 78.288 159.334 78.192 159.51 78C159.694 77.808 159.786 77.576 159.786 77.304C159.786 77.032 159.694 76.804 159.51 76.62C159.334 76.428 159.106 76.332 158.826 76.332C158.546 76.332 158.314 76.428 158.13 76.62C157.954 76.804 157.866 77.032 157.866 77.304C157.866 77.584 157.954 77.82 158.13 78.012ZM157.494 82.812L163.074 76.572L163.662 76.896L158.07 83.148L157.494 82.812ZM163.806 83.604C163.446 83.964 162.994 84.144 162.45 84.144C161.906 84.144 161.454 83.964 161.094 83.604C160.734 83.244 160.554 82.804 160.554 82.284C160.554 81.764 160.734 81.324 161.094 80.964C161.454 80.604 161.906 80.424 162.45 80.424C162.994 80.424 163.446 80.604 163.806 80.964C164.166 81.324 164.346 81.764 164.346 82.284C164.346 82.804 164.166 83.244 163.806 83.604ZM161.754 82.98C161.938 83.164 162.17 83.256 162.45 83.256C162.73 83.256 162.958 83.164 163.134 82.98C163.318 82.788 163.41 82.556 163.41 82.284C163.41 82.012 163.318 81.784 163.134 81.6C162.958 81.408 162.73 81.312 162.45 81.312C162.17 81.312 161.938 81.408 161.754 81.6C161.578 81.784 161.49 82.012 161.49 82.284C161.49 82.556 161.578 82.788 161.754 82.98Z" fill="#979797"/>
<rect x="217" y="149" width="140" height="10" rx="5" fill="#EFF3F9"/>
<rect x="217" y="149" width="5" height="10" rx="2.5" fill="#7F7FD5"/>
<path d="M223.216 136.352C222.632 136.888 221.876 137.156 220.948 137.156C220.02 137.156 219.26 136.888 218.668 136.352C218.084 135.808 217.792 135.084 217.792 134.18V128.6H218.908V134.132C218.908 134.724 219.084 135.196 219.436 135.548C219.788 135.892 220.292 136.064 220.948 136.064C221.604 136.064 222.108 135.892 222.46 135.548C222.812 135.196 222.988 134.724 222.988 134.132V128.6H224.092V134.18C224.092 135.084 223.8 135.808 223.216 136.352ZM228.51 137.156C227.726 137.156 227.054 136.972 226.494 136.604C225.942 136.236 225.554 135.732 225.33 135.092L226.29 134.54C226.618 135.556 227.366 136.064 228.534 136.064C229.11 136.064 229.55 135.948 229.854 135.716C230.158 135.476 230.31 135.16 230.31 134.768C230.31 134.368 230.158 134.068 229.854 133.868C229.55 133.668 229.042 133.456 228.33 133.232C227.978 133.12 227.71 133.032 227.526 132.968C227.342 132.896 227.11 132.792 226.83 132.656C226.558 132.512 226.354 132.368 226.218 132.224C226.082 132.072 225.958 131.876 225.846 131.636C225.742 131.396 225.69 131.124 225.69 130.82C225.69 130.092 225.946 129.516 226.458 129.092C226.97 128.66 227.594 128.444 228.33 128.444C228.994 128.444 229.57 128.612 230.058 128.948C230.554 129.284 230.926 129.728 231.174 130.28L230.238 130.82C229.878 129.956 229.242 129.524 228.33 129.524C227.874 129.524 227.506 129.636 227.226 129.86C226.946 130.084 226.806 130.388 226.806 130.772C226.806 131.14 226.938 131.42 227.202 131.612C227.466 131.804 227.922 132.004 228.57 132.212C228.802 132.284 228.966 132.336 229.062 132.368C229.158 132.4 229.306 132.456 229.506 132.536C229.714 132.616 229.866 132.68 229.962 132.728C230.058 132.776 230.186 132.844 230.346 132.932C230.514 133.02 230.638 133.104 230.718 133.184C230.798 133.264 230.89 133.364 230.994 133.484C231.106 133.596 231.186 133.712 231.234 133.832C231.282 133.952 231.322 134.092 231.354 134.252C231.394 134.404 231.414 134.568 231.414 134.744C231.414 135.48 231.146 136.068 230.61 136.508C230.074 136.94 229.374 137.156 228.51 137.156ZM238.139 137L237.455 135.116H233.675L232.991 137H231.803L234.935 128.6H236.195L239.327 137H238.139ZM234.059 134.072H237.071L235.559 129.932L234.059 134.072Z" fill="#4F4F4F"/>
<path d="M330.672 135.968C330.104 136.76 329.308 137.156 328.284 137.156C327.26 137.156 326.464 136.76 325.896 135.968C325.328 135.176 325.044 134.12 325.044 132.8C325.044 131.48 325.328 130.424 325.896 129.632C326.464 128.84 327.26 128.444 328.284 128.444C329.308 128.444 330.104 128.84 330.672 129.632C331.24 130.424 331.524 131.48 331.524 132.8C331.524 134.12 331.24 135.176 330.672 135.968ZM326.712 135.212C327.08 135.78 327.604 136.064 328.284 136.064C328.964 136.064 329.488 135.78 329.856 135.212C330.232 134.644 330.42 133.84 330.42 132.8C330.42 131.76 330.232 130.956 329.856 130.388C329.488 129.812 328.964 129.524 328.284 129.524C327.604 129.524 327.08 129.808 326.712 130.376C326.344 130.944 326.16 131.752 326.16 132.8C326.16 133.84 326.344 134.644 326.712 135.212ZM334.051 135.764L333.271 138.68H332.371L332.851 135.764H334.051ZM335.166 137V136.088L338.13 133.064C338.922 132.272 339.318 131.592 339.318 131.024C339.318 130.552 339.174 130.184 338.886 129.92C338.598 129.656 338.246 129.524 337.83 129.524C337.038 129.524 336.462 129.9 336.102 130.652L335.166 130.1C335.43 129.556 335.794 129.144 336.258 128.864C336.73 128.584 337.25 128.444 337.818 128.444C338.522 128.444 339.134 128.676 339.654 129.14C340.174 129.604 340.434 130.228 340.434 131.012C340.434 131.86 339.934 132.784 338.934 133.784L336.786 135.92H340.59V137H335.166ZM347.113 135.968C346.545 136.76 345.749 137.156 344.725 137.156C343.701 137.156 342.905 136.76 342.337 135.968C341.769 135.176 341.485 134.12 341.485 132.8C341.485 131.48 341.769 130.424 342.337 129.632C342.905 128.84 343.701 128.444 344.725 128.444C345.749 128.444 346.545 128.84 347.113 129.632C347.681 130.424 347.965 131.48 347.965 132.8C347.965 134.12 347.681 135.176 347.113 135.968ZM343.153 135.212C343.521 135.78 344.045 136.064 344.725 136.064C345.405 136.064 345.929 135.78 346.297 135.212C346.673 134.644 346.861 133.84 346.861 132.8C346.861 131.76 346.673 130.956 346.297 130.388C345.929 129.812 345.405 129.524 344.725 129.524C344.045 129.524 343.521 129.808 343.153 130.376C342.785 130.944 342.601 131.752 342.601 132.8C342.601 133.84 342.785 134.644 343.153 135.212ZM350.826 132.164C350.282 132.164 349.83 131.984 349.47 131.624C349.11 131.264 348.93 130.824 348.93 130.304C348.93 129.792 349.11 129.356 349.47 128.996C349.838 128.628 350.29 128.444 350.826 128.444C351.37 128.444 351.822 128.624 352.182 128.984C352.542 129.344 352.722 129.784 352.722 130.304C352.722 130.824 352.542 131.264 352.182 131.624C351.83 131.984 351.378 132.164 350.826 132.164ZM350.13 131.012C350.314 131.196 350.546 131.288 350.826 131.288C351.106 131.288 351.334 131.192 351.51 131C351.694 130.808 351.786 130.576 351.786 130.304C351.786 130.032 351.694 129.804 351.51 129.62C351.334 129.428 351.106 129.332 350.826 129.332C350.546 129.332 350.314 129.428 350.13 129.62C349.954 129.804 349.866 130.032 349.866 130.304C349.866 130.584 349.954 130.82 350.13 131.012ZM349.494 135.812L355.074 129.572L355.662 129.896L350.07 136.148L349.494 135.812ZM355.806 136.604C355.446 136.964 354.994 137.144 354.45 137.144C353.906 137.144 353.454 136.964 353.094 136.604C352.734 136.244 352.554 135.804 352.554 135.284C352.554 134.764 352.734 134.324 353.094 133.964C353.454 133.604 353.906 133.424 354.45 133.424C354.994 133.424 355.446 133.604 355.806 133.964C356.166 134.324 356.346 134.764 356.346 135.284C356.346 135.804 356.166 136.244 355.806 136.604ZM353.754 135.98C353.938 136.164 354.17 136.256 354.45 136.256C354.73 136.256 354.958 136.164 355.134 135.98C355.318 135.788 355.41 135.556 355.41 135.284C355.41 135.012 355.318 134.784 355.134 134.6C354.958 134.408 354.73 134.312 354.45 134.312C354.17 134.312 353.938 134.408 353.754 134.6C353.578 134.784 353.49 135.012 353.49 135.284C353.49 135.556 353.578 135.788 353.754 135.98Z" fill="#979797"/>
<rect x="25" y="203" width="140" height="10" rx="5" fill="#EFF3F9"/>
<rect x="25" y="203" width="4" height="10" rx="2" fill="#7F7FD5"/>
<path d="M33.76 183.6V192H32.656V185.436L29.908 190.008H29.764L27.016 185.448V192H25.9V183.6H27.16L29.836 188.04L32.5 183.6H33.76ZM40.5123 191.244C39.8963 191.852 39.1483 192.156 38.2683 192.156C37.3883 192.156 36.6403 191.852 36.0243 191.244C35.4163 190.636 35.1123 189.888 35.1123 189C35.1123 188.112 35.4163 187.364 36.0243 186.756C36.6403 186.148 37.3883 185.844 38.2683 185.844C39.1483 185.844 39.8963 186.148 40.5123 186.756C41.1283 187.364 41.4362 188.112 41.4362 189C41.4362 189.888 41.1283 190.636 40.5123 191.244ZM38.2683 191.136C38.8683 191.136 39.3723 190.932 39.7803 190.524C40.1883 190.116 40.3923 189.608 40.3923 189C40.3923 188.392 40.1883 187.884 39.7803 187.476C39.3723 187.068 38.8683 186.864 38.2683 186.864C37.6763 186.864 37.1763 187.068 36.7683 187.476C36.3603 187.884 36.1562 188.392 36.1562 189C36.1562 189.608 36.3603 190.116 36.7683 190.524C37.1763 190.932 37.6763 191.136 38.2683 191.136ZM45.655 185.844C46.359 185.844 46.923 186.068 47.347 186.516C47.771 186.956 47.983 187.556 47.983 188.316V192H46.939V188.376C46.939 187.888 46.807 187.512 46.543 187.248C46.279 186.976 45.915 186.84 45.451 186.84C44.931 186.84 44.511 187.004 44.191 187.332C43.871 187.652 43.711 188.148 43.711 188.82V192H42.667V186H43.711V186.864C44.135 186.184 44.783 185.844 45.655 185.844ZM54.4204 186H55.4524V191.748C55.4524 192.636 55.1524 193.324 54.5524 193.812C53.9524 194.308 53.2324 194.556 52.3924 194.556C51.7204 194.556 51.1404 194.428 50.6524 194.172C50.1644 193.924 49.7964 193.564 49.5484 193.092L50.4604 192.576C50.7884 193.248 51.4404 193.584 52.4164 193.584C53.0404 193.584 53.5284 193.42 53.8804 193.092C54.2404 192.764 54.4204 192.316 54.4204 191.748V190.896C53.8924 191.696 53.1404 192.096 52.1644 192.096C51.3084 192.096 50.5844 191.792 49.9924 191.184C49.4004 190.576 49.1044 189.836 49.1044 188.964C49.1044 188.092 49.4004 187.356 49.9924 186.756C50.5844 186.148 51.3084 185.844 52.1644 185.844C53.1484 185.844 53.9004 186.24 54.4204 187.032V186ZM50.7604 190.488C51.1684 190.896 51.6764 191.1 52.2844 191.1C52.8924 191.1 53.4004 190.896 53.8084 190.488C54.2164 190.08 54.4204 189.572 54.4204 188.964C54.4204 188.364 54.2164 187.86 53.8084 187.452C53.4004 187.044 52.8924 186.84 52.2844 186.84C51.6764 186.84 51.1684 187.044 50.7604 187.452C50.3524 187.86 50.1484 188.364 50.1484 188.964C50.1484 189.572 50.3524 190.08 50.7604 190.488ZM62.0982 191.244C61.4822 191.852 60.7342 192.156 59.8542 192.156C58.9742 192.156 58.2262 191.852 57.6102 191.244C57.0022 190.636 56.6982 189.888 56.6982 189C56.6982 188.112 57.0022 187.364 57.6102 186.756C58.2262 186.148 58.9742 185.844 59.8542 185.844C60.7342 185.844 61.4822 186.148 62.0982 186.756C62.7142 187.364 63.0222 188.112 63.0222 189C63.0222 189.888 62.7142 190.636 62.0982 191.244ZM59.8542 191.136C60.4542 191.136 60.9582 190.932 61.3662 190.524C61.7742 190.116 61.9782 189.608 61.9782 189C61.9782 188.392 61.7742 187.884 61.3662 187.476C60.9582 187.068 60.4542 186.864 59.8542 186.864C59.2622 186.864 58.7622 187.068 58.3542 187.476C57.9462 187.884 57.7422 188.392 57.7422 189C57.7422 189.608 57.9462 190.116 58.3542 190.524C58.7622 190.932 59.2622 191.136 59.8542 191.136ZM64.2529 192V183.24H65.2969V192H64.2529ZM67.4177 184.908C67.2177 184.908 67.0497 184.84 66.9137 184.704C66.7777 184.568 66.7097 184.404 66.7097 184.212C66.7097 184.02 66.7777 183.856 66.9137 183.72C67.0497 183.576 67.2177 183.504 67.4177 183.504C67.6097 183.504 67.7737 183.576 67.9097 183.72C68.0457 183.856 68.1137 184.02 68.1137 184.212C68.1137 184.404 68.0457 184.568 67.9097 184.704C67.7737 184.84 67.6097 184.908 67.4177 184.908ZM66.8897 192V186H67.9337V192H66.8897ZM74.4944 186H75.5384V192H74.4944V190.968C73.9744 191.76 73.2184 192.156 72.2264 192.156C71.3864 192.156 70.6704 191.852 70.0784 191.244C69.4864 190.628 69.1904 189.88 69.1904 189C69.1904 188.12 69.4864 187.376 70.0784 186.768C70.6704 186.152 71.3864 185.844 72.2264 185.844C73.2184 185.844 73.9744 186.24 74.4944 187.032V186ZM72.3584 191.148C72.9664 191.148 73.4744 190.944 73.8824 190.536C74.2904 190.12 74.4944 189.608 74.4944 189C74.4944 188.392 74.2904 187.884 73.8824 187.476C73.4744 187.06 72.9664 186.852 72.3584 186.852C71.7584 186.852 71.2544 187.06 70.8464 187.476C70.4384 187.884 70.2344 188.392 70.2344 189C70.2344 189.608 70.4384 190.12 70.8464 190.536C71.2544 190.944 71.7584 191.148 72.3584 191.148Z" fill="#4F4F4F"/>
<path d="M141.871 190.968C141.303 191.76 140.507 192.156 139.483 192.156C138.459 192.156 137.663 191.76 137.095 190.968C136.527 190.176 136.243 189.12 136.243 187.8C136.243 186.48 136.527 185.424 137.095 184.632C137.663 183.84 138.459 183.444 139.483 183.444C140.507 183.444 141.303 183.84 141.871 184.632C142.439 185.424 142.723 186.48 142.723 187.8C142.723 189.12 142.439 190.176 141.871 190.968ZM137.911 190.212C138.279 190.78 138.803 191.064 139.483 191.064C140.163 191.064 140.687 190.78 141.055 190.212C141.431 189.644 141.619 188.84 141.619 187.8C141.619 186.76 141.431 185.956 141.055 185.388C140.687 184.812 140.163 184.524 139.483 184.524C138.803 184.524 138.279 184.808 137.911 185.376C137.543 185.944 137.359 186.752 137.359 187.8C137.359 188.84 137.543 189.644 137.911 190.212ZM145.25 190.764L144.47 193.68H143.57L144.05 190.764H145.25ZM148.31 183.6H149.27V192H148.166V184.8L146.378 185.328L146.102 184.368L148.31 183.6ZM154.003 187.044C154.643 187.164 155.167 187.44 155.575 187.872C155.983 188.304 156.187 188.852 156.187 189.516C156.187 190.332 155.907 190.976 155.347 191.448C154.787 191.92 154.107 192.156 153.307 192.156C152.667 192.156 152.099 192.012 151.603 191.724C151.107 191.428 150.755 191.004 150.547 190.452L151.483 189.9C151.731 190.676 152.339 191.064 153.307 191.064C153.827 191.064 154.251 190.928 154.579 190.656C154.907 190.384 155.071 190.004 155.071 189.516C155.071 189.028 154.907 188.648 154.579 188.376C154.251 188.096 153.827 187.956 153.307 187.956H153.019L152.575 187.272L154.519 184.644H150.787V183.6H155.827V184.584L154.003 187.044ZM158.826 187.164C158.282 187.164 157.83 186.984 157.47 186.624C157.11 186.264 156.93 185.824 156.93 185.304C156.93 184.792 157.11 184.356 157.47 183.996C157.838 183.628 158.29 183.444 158.826 183.444C159.37 183.444 159.822 183.624 160.182 183.984C160.542 184.344 160.722 184.784 160.722 185.304C160.722 185.824 160.542 186.264 160.182 186.624C159.83 186.984 159.378 187.164 158.826 187.164ZM158.13 186.012C158.314 186.196 158.546 186.288 158.826 186.288C159.106 186.288 159.334 186.192 159.51 186C159.694 185.808 159.786 185.576 159.786 185.304C159.786 185.032 159.694 184.804 159.51 184.62C159.334 184.428 159.106 184.332 158.826 184.332C158.546 184.332 158.314 184.428 158.13 184.62C157.954 184.804 157.866 185.032 157.866 185.304C157.866 185.584 157.954 185.82 158.13 186.012ZM157.494 190.812L163.074 184.572L163.662 184.896L158.07 191.148L157.494 190.812ZM163.806 191.604C163.446 191.964 162.994 192.144 162.45 192.144C161.906 192.144 161.454 191.964 161.094 191.604C160.734 191.244 160.554 190.804 160.554 190.284C160.554 189.764 160.734 189.324 161.094 188.964C161.454 188.604 161.906 188.424 162.45 188.424C162.994 188.424 163.446 188.604 163.806 188.964C164.166 189.324 164.346 189.764 164.346 190.284C164.346 190.804 164.166 191.244 163.806 191.604ZM161.754 190.98C161.938 191.164 162.17 191.256 162.45 191.256C162.73 191.256 162.958 191.164 163.134 190.98C163.318 190.788 163.41 190.556 163.41 190.284C163.41 190.012 163.318 189.784 163.134 189.6C162.958 189.408 162.73 189.312 162.45 189.312C162.17 189.312 161.938 189.408 161.754 189.6C161.578 189.784 161.49 190.012 161.49 190.284C161.49 190.556 161.578 190.788 161.754 190.98Z" fill="#979797"/>
<rect x="217" y="202" width="140" height="10" rx="5" fill="#EFF3F9"/>
<rect x="217" y="202" width="15" height="10" rx="5" fill="#7F7FD5"/>
<path d="M224.884 189.884C224.044 190.732 223.016 191.156 221.8 191.156C220.584 191.156 219.556 190.732 218.716 189.884C217.876 189.036 217.456 188.008 217.456 186.8C217.456 185.584 217.876 184.556 218.716 183.716C219.556 182.868 220.584 182.444 221.8 182.444C223.016 182.444 224.044 182.868 224.884 183.716C225.732 184.556 226.156 185.584 226.156 186.8C226.156 188.008 225.732 189.036 224.884 189.884ZM219.484 189.128C220.108 189.752 220.88 190.064 221.8 190.064C222.72 190.064 223.488 189.752 224.104 189.128C224.728 188.496 225.04 187.72 225.04 186.8C225.04 185.872 224.728 185.096 224.104 184.472C223.488 183.84 222.72 183.524 221.8 183.524C220.88 183.524 220.108 183.84 219.484 184.472C218.868 185.096 218.56 185.872 218.56 186.8C218.56 187.72 218.868 188.496 219.484 189.128ZM230.654 186.008H229.058V189.26C229.058 189.556 229.114 189.768 229.226 189.896C229.346 190.016 229.526 190.08 229.766 190.088C230.006 190.088 230.302 190.08 230.654 190.064V191C229.742 191.12 229.074 191.048 228.65 190.784C228.226 190.512 228.014 190.004 228.014 189.26V186.008H226.826V185H228.014V183.632L229.058 183.32V185H230.654V186.008ZM234.878 184.844C235.582 184.844 236.146 185.068 236.57 185.516C236.994 185.956 237.206 186.556 237.206 187.316V191H236.162V187.376C236.162 186.888 236.03 186.512 235.766 186.248C235.502 185.976 235.138 185.84 234.674 185.84C234.154 185.84 233.734 186.004 233.414 186.332C233.094 186.652 232.934 187.148 232.934 187.82V191H231.89V182.6H232.934V185.864C233.358 185.184 234.006 184.844 234.878 184.844ZM239.395 188.48C239.499 189.016 239.743 189.432 240.127 189.728C240.519 190.024 240.999 190.172 241.567 190.172C242.359 190.172 242.935 189.88 243.295 189.296L244.183 189.8C243.599 190.704 242.719 191.156 241.543 191.156C240.591 191.156 239.815 190.86 239.215 190.268C238.623 189.668 238.327 188.912 238.327 188C238.327 187.096 238.619 186.344 239.203 185.744C239.787 185.144 240.543 184.844 241.471 184.844C242.351 184.844 243.067 185.156 243.619 185.78C244.179 186.396 244.459 187.14 244.459 188.012C244.459 188.164 244.447 188.32 244.423 188.48H239.395ZM241.471 185.828C240.911 185.828 240.447 185.988 240.079 186.308C239.711 186.62 239.483 187.04 239.395 187.568H243.403C243.315 187 243.091 186.568 242.731 186.272C242.371 185.976 241.951 185.828 241.471 185.828ZM246.703 186.008C247.047 185.264 247.671 184.892 248.575 184.892V185.984C248.063 185.96 247.623 186.096 247.255 186.392C246.887 186.688 246.703 187.164 246.703 187.82V191H245.659V185H246.703V186.008Z" fill="#4F4F4F"/>
<path d="M331.028 182.6H331.988V191H330.884V183.8L329.096 184.328L328.82 183.368L331.028 182.6ZM335.282 189.764L334.502 192.68H333.602L334.082 189.764H335.282ZM339.757 186.044C340.397 186.164 340.921 186.44 341.329 186.872C341.737 187.304 341.941 187.852 341.941 188.516C341.941 189.332 341.661 189.976 341.101 190.448C340.541 190.92 339.861 191.156 339.061 191.156C338.421 191.156 337.853 191.012 337.357 190.724C336.861 190.428 336.509 190.004 336.301 189.452L337.237 188.9C337.485 189.676 338.093 190.064 339.061 190.064C339.581 190.064 340.005 189.928 340.333 189.656C340.661 189.384 340.825 189.004 340.825 188.516C340.825 188.028 340.661 187.648 340.333 187.376C340.005 187.096 339.581 186.956 339.061 186.956H338.773L338.329 186.272L340.273 183.644H336.541V182.6H341.581V183.584L339.757 186.044ZM342.603 182.6H347.847V183.596L344.787 191H343.623L346.659 183.656H342.603V182.6ZM350.826 186.164C350.282 186.164 349.83 185.984 349.47 185.624C349.11 185.264 348.93 184.824 348.93 184.304C348.93 183.792 349.11 183.356 349.47 182.996C349.838 182.628 350.29 182.444 350.826 182.444C351.37 182.444 351.822 182.624 352.182 182.984C352.542 183.344 352.722 183.784 352.722 184.304C352.722 184.824 352.542 185.264 352.182 185.624C351.83 185.984 351.378 186.164 350.826 186.164ZM350.13 185.012C350.314 185.196 350.546 185.288 350.826 185.288C351.106 185.288 351.334 185.192 351.51 185C351.694 184.808 351.786 184.576 351.786 184.304C351.786 184.032 351.694 183.804 351.51 183.62C351.334 183.428 351.106 183.332 350.826 183.332C350.546 183.332 350.314 183.428 350.13 183.62C349.954 183.804 349.866 184.032 349.866 184.304C349.866 184.584 349.954 184.82 350.13 185.012ZM349.494 189.812L355.074 183.572L355.662 183.896L350.07 190.148L349.494 189.812ZM355.806 190.604C355.446 190.964 354.994 191.144 354.45 191.144C353.906 191.144 353.454 190.964 353.094 190.604C352.734 190.244 352.554 189.804 352.554 189.284C352.554 188.764 352.734 188.324 353.094 187.964C353.454 187.604 353.906 187.424 354.45 187.424C354.994 187.424 355.446 187.604 355.806 187.964C356.166 188.324 356.346 188.764 356.346 189.284C356.346 189.804 356.166 190.244 355.806 190.604ZM353.754 189.98C353.938 190.164 354.17 190.256 354.45 190.256C354.73 190.256 354.958 190.164 355.134 189.98C355.318 189.788 355.41 189.556 355.41 189.284C355.41 189.012 355.318 188.784 355.134 188.6C354.958 188.408 354.73 188.312 354.45 188.312C354.17 188.312 353.938 188.408 353.754 188.6C353.578 188.784 353.49 189.012 353.49 189.284C353.49 189.556 353.578 189.788 353.754 189.98Z" fill="#979797"/>
</svg>
