<svg width="641" height="120" viewBox="0 0 641 120" fill="none" xmlns="http://www.w3.org/2000/svg">
<path d="M3 98.7185C29.9333 46.3813 65.9356 29.7969 93.8571 53.6884C117.763 74.1436 150.683 119.2 184.714 98.8364C218.746 78.473 226.745 3.00016 275.571 3C324.398 2.99984 345.949 64.6753 366.429 89.406C386.908 114.137 423.649 85.5854 457.604 60.3497C491.558 35.1139 509.769 19.247 548.143 11.4874C586.517 3.72768 639 83.2762 639 83.2762" stroke="#7F7FD5" stroke-width="1.8"/>
<path d="M3 2V119.305" stroke="#EFF3F9"/>
<path d="M638.894 1.69476V119" stroke="#EFF3F9"/>
<path d="M93.4245 55.2046C94.7467 55.2046 95.8186 54.1257 95.8186 52.7949C95.8186 51.464 94.7467 50.3852 93.4245 50.3852C92.1022 50.3852 91.0303 51.464 91.0303 52.7949C91.0303 54.1257 92.1022 55.2046 93.4245 55.2046Z" fill="#E786D7"/>
<path d="M2.39419 100.008C3.71647 100.008 4.78838 98.9293 4.78838 97.5984C4.78838 96.2676 3.71647 95.1887 2.39419 95.1887C1.07192 95.1887 0 96.2676 0 97.5984C0 98.9293 1.07192 100.008 2.39419 100.008Z" fill="#E786D7"/>
<path d="M184.455 101.004C185.777 101.004 186.849 99.925 186.849 98.5941C186.849 97.2633 185.777 96.1845 184.455 96.1845C183.132 96.1845 182.061 97.2633 182.061 98.5941C182.061 99.925 183.132 101.004 184.455 101.004Z" fill="#E786D7"/>
<path d="M275.259 4.81936C276.581 4.81936 277.653 3.74051 277.653 2.40968C277.653 1.07885 276.581 0 275.259 0C273.937 0 272.865 1.07885 272.865 2.40968C272.865 3.74051 273.937 4.81936 275.259 4.81936Z" fill="#E786D7"/>
<path d="M366.058 91.0877C367.38 91.0877 368.452 90.0089 368.452 88.6781C368.452 87.3472 367.38 86.2684 366.058 86.2684C364.736 86.2684 363.664 87.3472 363.664 88.6781C363.664 90.0089 364.736 91.0877 366.058 91.0877Z" fill="#E786D7"/>
<path d="M456.545 63.1696C457.868 63.1696 458.939 62.0907 458.939 60.7599C458.939 59.4291 457.868 58.3502 456.545 58.3502C455.223 58.3502 454.151 59.4291 454.151 60.7599C454.151 62.0907 455.223 63.1696 456.545 63.1696Z" fill="#E786D7"/>
<path d="M548.576 13.3877C549.898 13.3877 550.97 12.3089 550.97 10.9781C550.97 9.64723 549.898 8.56837 548.576 8.56837C547.253 8.56837 546.182 9.64723 546.182 10.9781C546.182 12.3089 547.253 13.3877 548.576 13.3877Z" fill="#E786D7"/>
<path d="M638.606 85.0736C639.928 85.0736 641 83.9947 641 82.6639C641 81.3331 639.928 80.2542 638.606 80.2542C637.284 80.2542 636.212 81.3331 636.212 82.6639C636.212 83.9947 637.284 85.0736 638.606 85.0736Z" fill="#E786D7"/>
</svg>
