<svg width="632" height="167" viewBox="0 0 632 167" fill="none" xmlns="http://www.w3.org/2000/svg">
<path d="M61.405 11L61.4028 128.996M630.998 129.01L60.9978 129" stroke="#4D4D4D"/>
<path d="M35.1133 130.968C34.5453 131.76 33.7493 132.156 32.7253 132.156C31.7013 132.156 30.9053 131.76 30.3373 130.968C29.7693 130.176 29.4853 129.12 29.4853 127.8C29.4853 126.48 29.7693 125.424 30.3373 124.632C30.9053 123.84 31.7013 123.444 32.7253 123.444C33.7493 123.444 34.5453 123.84 35.1133 124.632C35.6813 125.424 35.9653 126.48 35.9653 127.8C35.9653 129.12 35.6813 130.176 35.1133 130.968ZM31.1533 130.212C31.5213 130.78 32.0453 131.064 32.7253 131.064C33.4053 131.064 33.9293 130.78 34.2973 130.212C34.6733 129.644 34.8613 128.84 34.8613 127.8C34.8613 126.76 34.6733 125.956 34.2973 125.388C33.9293 124.812 33.4053 124.524 32.7253 124.524C32.0453 124.524 31.5213 124.808 31.1533 125.376C30.7853 125.944 30.6013 126.752 30.6013 127.8C30.6013 128.84 30.7853 129.644 31.1533 130.212ZM38.8255 127.164C38.2815 127.164 37.8295 126.984 37.4695 126.624C37.1095 126.264 36.9295 125.824 36.9295 125.304C36.9295 124.792 37.1095 124.356 37.4695 123.996C37.8375 123.628 38.2895 123.444 38.8255 123.444C39.3695 123.444 39.8215 123.624 40.1815 123.984C40.5415 124.344 40.7215 124.784 40.7215 125.304C40.7215 125.824 40.5415 126.264 40.1815 126.624C39.8295 126.984 39.3775 127.164 38.8255 127.164ZM38.1295 126.012C38.3135 126.196 38.5455 126.288 38.8255 126.288C39.1055 126.288 39.3335 126.192 39.5095 126C39.6935 125.808 39.7855 125.576 39.7855 125.304C39.7855 125.032 39.6935 124.804 39.5095 124.62C39.3335 124.428 39.1055 124.332 38.8255 124.332C38.5455 124.332 38.3135 124.428 38.1295 124.62C37.9535 124.804 37.8655 125.032 37.8655 125.304C37.8655 125.584 37.9535 125.82 38.1295 126.012ZM37.4935 130.812L43.0735 124.572L43.6615 124.896L38.0695 131.148L37.4935 130.812ZM43.8055 131.604C43.4455 131.964 42.9935 132.144 42.4495 132.144C41.9055 132.144 41.4535 131.964 41.0935 131.604C40.7335 131.244 40.5535 130.804 40.5535 130.284C40.5535 129.764 40.7335 129.324 41.0935 128.964C41.4535 128.604 41.9055 128.424 42.4495 128.424C42.9935 128.424 43.4455 128.604 43.8055 128.964C44.1655 129.324 44.3455 129.764 44.3455 130.284C44.3455 130.804 44.1655 131.244 43.8055 131.604ZM41.7535 130.98C41.9375 131.164 42.1695 131.256 42.4495 131.256C42.7295 131.256 42.9575 131.164 43.1335 130.98C43.3175 130.788 43.4095 130.556 43.4095 130.284C43.4095 130.012 43.3175 129.784 43.1335 129.6C42.9575 129.408 42.7295 129.312 42.4495 129.312C42.1695 129.312 41.9375 129.408 41.7535 129.6C41.5775 129.784 41.4895 130.012 41.4895 130.284C41.4895 130.556 41.5775 130.788 41.7535 130.98Z" fill="#979797"/>
<path d="M23.1664 73V72.088L26.1304 69.064C26.9224 68.272 27.3184 67.592 27.3184 67.024C27.3184 66.552 27.1744 66.184 26.8864 65.92C26.5984 65.656 26.2464 65.524 25.8304 65.524C25.0384 65.524 24.4624 65.9 24.1024 66.652L23.1664 66.1C23.4304 65.556 23.7944 65.144 24.2584 64.864C24.7304 64.584 25.2504 64.444 25.8184 64.444C26.5224 64.444 27.1344 64.676 27.6544 65.14C28.1744 65.604 28.4344 66.228 28.4344 67.012C28.4344 67.86 27.9344 68.784 26.9344 69.784L24.7864 71.92H28.5904V73H23.1664ZM35.1133 71.968C34.5453 72.76 33.7493 73.156 32.7253 73.156C31.7013 73.156 30.9053 72.76 30.3373 71.968C29.7693 71.176 29.4853 70.12 29.4853 68.8C29.4853 67.48 29.7693 66.424 30.3373 65.632C30.9053 64.84 31.7013 64.444 32.7253 64.444C33.7493 64.444 34.5453 64.84 35.1133 65.632C35.6813 66.424 35.9653 67.48 35.9653 68.8C35.9653 70.12 35.6813 71.176 35.1133 71.968ZM31.1533 71.212C31.5213 71.78 32.0453 72.064 32.7253 72.064C33.4053 72.064 33.9293 71.78 34.2973 71.212C34.6733 70.644 34.8613 69.84 34.8613 68.8C34.8613 67.76 34.6733 66.956 34.2973 66.388C33.9293 65.812 33.4053 65.524 32.7253 65.524C32.0453 65.524 31.5213 65.808 31.1533 66.376C30.7853 66.944 30.6013 67.752 30.6013 68.8C30.6013 69.84 30.7853 70.644 31.1533 71.212ZM38.8255 68.164C38.2815 68.164 37.8295 67.984 37.4695 67.624C37.1095 67.264 36.9295 66.824 36.9295 66.304C36.9295 65.792 37.1095 65.356 37.4695 64.996C37.8375 64.628 38.2895 64.444 38.8255 64.444C39.3695 64.444 39.8215 64.624 40.1815 64.984C40.5415 65.344 40.7215 65.784 40.7215 66.304C40.7215 66.824 40.5415 67.264 40.1815 67.624C39.8295 67.984 39.3775 68.164 38.8255 68.164ZM38.1295 67.012C38.3135 67.196 38.5455 67.288 38.8255 67.288C39.1055 67.288 39.3335 67.192 39.5095 67C39.6935 66.808 39.7855 66.576 39.7855 66.304C39.7855 66.032 39.6935 65.804 39.5095 65.62C39.3335 65.428 39.1055 65.332 38.8255 65.332C38.5455 65.332 38.3135 65.428 38.1295 65.62C37.9535 65.804 37.8655 66.032 37.8655 66.304C37.8655 66.584 37.9535 66.82 38.1295 67.012ZM37.4935 71.812L43.0735 65.572L43.6615 65.896L38.0695 72.148L37.4935 71.812ZM43.8055 72.604C43.4455 72.964 42.9935 73.144 42.4495 73.144C41.9055 73.144 41.4535 72.964 41.0935 72.604C40.7335 72.244 40.5535 71.804 40.5535 71.284C40.5535 70.764 40.7335 70.324 41.0935 69.964C41.4535 69.604 41.9055 69.424 42.4495 69.424C42.9935 69.424 43.4455 69.604 43.8055 69.964C44.1655 70.324 44.3455 70.764 44.3455 71.284C44.3455 71.804 44.1655 72.244 43.8055 72.604ZM41.7535 71.98C41.9375 72.164 42.1695 72.256 42.4495 72.256C42.7295 72.256 42.9575 72.164 43.1335 71.98C43.3175 71.788 43.4095 71.556 43.4095 71.284C43.4095 71.012 43.3175 70.784 43.1335 70.6C42.9575 70.408 42.7295 70.312 42.4495 70.312C42.1695 70.312 41.9375 70.408 41.7535 70.6C41.5775 70.784 41.4895 71.012 41.4895 71.284C41.4895 71.556 41.5775 71.788 41.7535 71.98Z" fill="#979797"/>
<path d="M28.6924 12.36V13.404H27.6724V15H26.5564V13.404H22.2724V12.36L25.2844 6.6H26.4844L23.4724 12.36H26.5564V9.984H27.6724V12.36H28.6924ZM35.1133 13.968C34.5453 14.76 33.7493 15.156 32.7253 15.156C31.7013 15.156 30.9053 14.76 30.3373 13.968C29.7693 13.176 29.4853 12.12 29.4853 10.8C29.4853 9.48 29.7693 8.424 30.3373 7.632C30.9053 6.84 31.7013 6.444 32.7253 6.444C33.7493 6.444 34.5453 6.84 35.1133 7.632C35.6813 8.424 35.9653 9.48 35.9653 10.8C35.9653 12.12 35.6813 13.176 35.1133 13.968ZM31.1533 13.212C31.5213 13.78 32.0453 14.064 32.7253 14.064C33.4053 14.064 33.9293 13.78 34.2973 13.212C34.6733 12.644 34.8613 11.84 34.8613 10.8C34.8613 9.76 34.6733 8.956 34.2973 8.388C33.9293 7.812 33.4053 7.524 32.7253 7.524C32.0453 7.524 31.5213 7.808 31.1533 8.376C30.7853 8.944 30.6013 9.752 30.6013 10.8C30.6013 11.84 30.7853 12.644 31.1533 13.212ZM38.8255 10.164C38.2815 10.164 37.8295 9.984 37.4695 9.624C37.1095 9.264 36.9295 8.824 36.9295 8.304C36.9295 7.792 37.1095 7.356 37.4695 6.996C37.8375 6.628 38.2895 6.444 38.8255 6.444C39.3695 6.444 39.8215 6.624 40.1815 6.984C40.5415 7.344 40.7215 7.784 40.7215 8.304C40.7215 8.824 40.5415 9.264 40.1815 9.624C39.8295 9.984 39.3775 10.164 38.8255 10.164ZM38.1295 9.012C38.3135 9.196 38.5455 9.288 38.8255 9.288C39.1055 9.288 39.3335 9.192 39.5095 9C39.6935 8.808 39.7855 8.576 39.7855 8.304C39.7855 8.032 39.6935 7.804 39.5095 7.62C39.3335 7.428 39.1055 7.332 38.8255 7.332C38.5455 7.332 38.3135 7.428 38.1295 7.62C37.9535 7.804 37.8655 8.032 37.8655 8.304C37.8655 8.584 37.9535 8.82 38.1295 9.012ZM37.4935 13.812L43.0735 7.572L43.6615 7.896L38.0695 14.148L37.4935 13.812ZM43.8055 14.604C43.4455 14.964 42.9935 15.144 42.4495 15.144C41.9055 15.144 41.4535 14.964 41.0935 14.604C40.7335 14.244 40.5535 13.804 40.5535 13.284C40.5535 12.764 40.7335 12.324 41.0935 11.964C41.4535 11.604 41.9055 11.424 42.4495 11.424C42.9935 11.424 43.4455 11.604 43.8055 11.964C44.1655 12.324 44.3455 12.764 44.3455 13.284C44.3455 13.804 44.1655 14.244 43.8055 14.604ZM41.7535 13.98C41.9375 14.164 42.1695 14.256 42.4495 14.256C42.7295 14.256 42.9575 14.164 43.1335 13.98C43.3175 13.788 43.4095 13.556 43.4095 13.284C43.4095 13.012 43.3175 12.784 43.1335 12.6C42.9575 12.408 42.7295 12.312 42.4495 12.312C42.1695 12.312 41.9375 12.408 41.7535 12.6C41.5775 12.784 41.4895 13.012 41.4895 13.284C41.4895 13.556 41.5775 13.788 41.7535 13.98Z" fill="#979797"/>
<path d="M50 11H631.002" stroke="#4D4D4D"/>
<path d="M52.2582 69.7026H626.41" stroke="#4D4D4D"/>
<path d="M89.71 144.189V145.317L85.942 146.865L89.71 148.401V149.529L84.754 147.369V146.349L89.71 144.189ZM95.7513 142.665H96.7113V151.065H95.6073V143.865L93.8193 144.393L93.5433 143.433L95.7513 142.665ZM102.549 146.721C102.957 146.929 103.277 147.209 103.509 147.561C103.741 147.913 103.857 148.313 103.857 148.761C103.857 149.529 103.589 150.133 103.053 150.573C102.517 151.005 101.825 151.221 100.977 151.221C100.137 151.221 99.4486 151.005 98.9126 150.573C98.3766 150.133 98.1086 149.529 98.1086 148.761C98.1086 148.313 98.2246 147.913 98.4566 147.561C98.6886 147.209 99.0086 146.929 99.4166 146.721C98.7286 146.289 98.3846 145.677 98.3846 144.885C98.3846 144.125 98.6366 143.541 99.1406 143.133C99.6526 142.717 100.265 142.509 100.977 142.509C101.697 142.509 102.309 142.717 102.813 143.133C103.325 143.541 103.581 144.125 103.581 144.885C103.581 145.677 103.237 146.289 102.549 146.721ZM100.977 143.577C100.553 143.577 100.197 143.689 99.9086 143.913C99.6286 144.137 99.4886 144.469 99.4886 144.909C99.4886 145.333 99.6326 145.665 99.9206 145.905C100.209 146.137 100.561 146.253 100.977 146.253C101.393 146.253 101.745 146.137 102.033 145.905C102.321 145.665 102.465 145.333 102.465 144.909C102.465 144.469 102.325 144.137 102.045 143.913C101.765 143.689 101.409 143.577 100.977 143.577ZM100.977 150.153C101.513 150.153 101.941 150.029 102.261 149.781C102.589 149.525 102.753 149.161 102.753 148.689C102.753 148.225 102.589 147.869 102.261 147.621C101.941 147.365 101.513 147.237 100.977 147.237C100.449 147.237 100.021 147.365 99.6926 147.621C99.3726 147.869 99.2126 148.225 99.2126 148.689C99.2126 149.161 99.3726 149.525 99.6926 149.781C100.021 150.029 100.449 150.153 100.977 150.153Z" fill="#979797"/>
<rect x="75.675" y="126.536" width="21.5272" height="1.63499" fill="#E786D7"/>
<rect x="97.2022" y="126.536" width="21.5272" height="1.63499" fill="#7F7FD5"/>
<path d="M157.31 143.869H158.27V152.269H157.166V145.069L155.378 145.597L155.102 144.637L157.31 143.869ZM164.107 147.925C164.515 148.133 164.835 148.413 165.067 148.765C165.299 149.117 165.415 149.517 165.415 149.965C165.415 150.733 165.147 151.337 164.611 151.777C164.075 152.209 163.383 152.425 162.535 152.425C161.695 152.425 161.007 152.209 160.471 151.777C159.935 151.337 159.667 150.733 159.667 149.965C159.667 149.517 159.783 149.117 160.015 148.765C160.247 148.413 160.567 148.133 160.975 147.925C160.287 147.493 159.943 146.881 159.943 146.089C159.943 145.329 160.195 144.745 160.699 144.337C161.211 143.921 161.823 143.713 162.535 143.713C163.255 143.713 163.867 143.921 164.371 144.337C164.883 144.745 165.139 145.329 165.139 146.089C165.139 146.881 164.795 147.493 164.107 147.925ZM162.535 144.781C162.111 144.781 161.755 144.893 161.467 145.117C161.187 145.341 161.047 145.673 161.047 146.113C161.047 146.537 161.191 146.869 161.479 147.109C161.767 147.341 162.119 147.457 162.535 147.457C162.951 147.457 163.303 147.341 163.591 147.109C163.879 146.869 164.023 146.537 164.023 146.113C164.023 145.673 163.883 145.341 163.603 145.117C163.323 144.893 162.967 144.781 162.535 144.781ZM162.535 151.357C163.071 151.357 163.499 151.233 163.819 150.985C164.147 150.729 164.311 150.365 164.311 149.893C164.311 149.429 164.147 149.073 163.819 148.825C163.499 148.569 163.071 148.441 162.535 148.441C162.007 148.441 161.579 148.569 161.251 148.825C160.931 149.073 160.771 149.429 160.771 149.893C160.771 150.365 160.931 150.729 161.251 150.985C161.579 151.233 162.007 151.357 162.535 151.357ZM166.767 149.089V148.081H171.147V149.089H166.767ZM172.475 152.269V151.357L175.439 148.333C176.231 147.541 176.627 146.861 176.627 146.293C176.627 145.821 176.483 145.453 176.195 145.189C175.907 144.925 175.555 144.793 175.139 144.793C174.347 144.793 173.771 145.169 173.411 145.921L172.475 145.369C172.739 144.825 173.103 144.413 173.567 144.133C174.039 143.853 174.559 143.713 175.127 143.713C175.831 143.713 176.443 143.945 176.963 144.409C177.483 144.873 177.743 145.497 177.743 146.281C177.743 147.129 177.243 148.053 176.243 149.053L174.095 151.189H177.899V152.269H172.475ZM180.689 143.869H181.649V152.269H180.545V145.069L178.757 145.597L178.481 144.637L180.689 143.869Z" fill="#979797"/>
<rect x="147.236" y="127.61" width="21.5272" height="1.63499" fill="#E786D7"/>
<path d="M168.763 75.5376C168.763 72.7762 171.001 70.5376 173.763 70.5376H185.29C188.051 70.5376 190.29 72.7762 190.29 75.5376V129.245H168.763V75.5376Z" fill="#7F7FD5"/>
<path d="M223.854 151.139V150.227L226.818 147.203C227.61 146.411 228.006 145.731 228.006 145.163C228.006 144.691 227.862 144.323 227.574 144.059C227.286 143.795 226.934 143.663 226.518 143.663C225.726 143.663 225.15 144.039 224.79 144.791L223.854 144.239C224.118 143.695 224.482 143.283 224.946 143.003C225.418 142.723 225.938 142.583 226.506 142.583C227.21 142.583 227.822 142.815 228.342 143.279C228.862 143.743 229.122 144.367 229.122 145.151C229.122 145.999 228.622 146.923 227.622 147.923L225.474 150.059H229.278V151.139H223.854ZM232.067 142.739H233.027V151.139H231.923V143.939L230.135 144.467L229.859 143.507L232.067 142.739ZM234.868 147.959V146.951H239.248V147.959H234.868ZM240.576 151.139V150.227L243.54 147.203C244.332 146.411 244.728 145.731 244.728 145.163C244.728 144.691 244.584 144.323 244.296 144.059C244.008 143.795 243.656 143.663 243.24 143.663C242.448 143.663 241.872 144.039 241.512 144.791L240.576 144.239C240.84 143.695 241.204 143.283 241.668 143.003C242.14 142.723 242.66 142.583 243.228 142.583C243.932 142.583 244.544 142.815 245.064 143.279C245.584 143.743 245.844 144.367 245.844 145.151C245.844 145.999 245.344 146.923 244.344 147.923L242.196 150.059H246V151.139H240.576ZM252.969 148.499V149.543H251.949V151.139H250.833V149.543H246.549V148.499L249.561 142.739H250.761L247.749 148.499H250.833V146.123H251.949V148.499H252.969Z" fill="#979797"/>
<rect x="216.796" y="126.162" width="21.5272" height="1.63499" fill="#E786D7"/>
<path d="M238.323 74.5376C238.323 71.7762 240.561 69.5376 243.323 69.5376H254.85C257.611 69.5376 259.85 71.7762 259.85 74.5376V127.796H238.323V74.5376Z" fill="#7F7FD5"/>
<path d="M294.699 151.74V150.828L297.663 147.804C298.455 147.012 298.851 146.332 298.851 145.764C298.851 145.292 298.707 144.924 298.419 144.66C298.131 144.396 297.779 144.264 297.363 144.264C296.571 144.264 295.995 144.64 295.635 145.392L294.699 144.84C294.963 144.296 295.327 143.884 295.791 143.604C296.263 143.324 296.783 143.184 297.351 143.184C298.055 143.184 298.667 143.416 299.187 143.88C299.707 144.344 299.967 144.968 299.967 145.752C299.967 146.6 299.467 147.524 298.467 148.524L296.319 150.66H300.123V151.74H294.699ZM307.093 149.1V150.144H306.073V151.74H304.957V150.144H300.673V149.1L303.685 143.34H304.885L301.873 149.1H304.957V146.724H306.073V149.1H307.093ZM308.245 148.56V147.552H312.625V148.56H308.245ZM313.953 151.74V150.828L316.917 147.804C317.709 147.012 318.105 146.332 318.105 145.764C318.105 145.292 317.961 144.924 317.673 144.66C317.385 144.396 317.033 144.264 316.617 144.264C315.825 144.264 315.249 144.64 314.889 145.392L313.953 144.84C314.217 144.296 314.581 143.884 315.045 143.604C315.517 143.324 316.037 143.184 316.605 143.184C317.309 143.184 317.921 143.416 318.441 143.88C318.961 144.344 319.221 144.968 319.221 145.752C319.221 146.6 318.721 147.524 317.721 148.524L315.573 150.66H319.377V151.74H313.953ZM319.831 143.34H325.075V144.336L322.015 151.74H320.851L323.887 144.396H319.831V143.34Z" fill="#979797"/>
<path d="M288.356 33.5388C288.356 30.7773 290.595 28.5388 293.356 28.5388H304.883C307.645 28.5388 309.883 30.7773 309.883 33.5388V128.715H288.356V33.5388Z" fill="#E786D7"/>
<path d="M309.887 74.5376C309.887 71.7762 312.126 69.5376 314.887 69.5376H326.894C329.655 69.5376 331.894 71.7762 331.894 74.5376V128.536H309.887V74.5376Z" fill="#7F7FD5"/>
<path d="M363.99 151.139V150.227L366.954 147.203C367.746 146.411 368.142 145.731 368.142 145.163C368.142 144.691 367.998 144.323 367.71 144.059C367.422 143.795 367.07 143.663 366.654 143.663C365.862 143.663 365.286 144.039 364.926 144.791L363.99 144.239C364.254 143.695 364.618 143.283 365.082 143.003C365.554 142.723 366.074 142.583 366.642 142.583C367.346 142.583 367.958 142.815 368.478 143.279C368.998 143.743 369.258 144.367 369.258 145.151C369.258 145.999 368.758 146.923 367.758 147.923L365.61 150.059H369.414V151.139H363.99ZM369.868 142.739H375.112V143.735L372.052 151.139H370.888L373.924 143.795H369.868V142.739ZM376.071 147.959V146.951H380.451V147.959H376.071ZM385.139 146.183C385.779 146.303 386.303 146.579 386.711 147.011C387.119 147.443 387.323 147.991 387.323 148.655C387.323 149.471 387.043 150.115 386.483 150.587C385.923 151.059 385.243 151.295 384.443 151.295C383.803 151.295 383.235 151.151 382.739 150.863C382.243 150.567 381.891 150.143 381.683 149.591L382.619 149.039C382.867 149.815 383.475 150.203 384.443 150.203C384.963 150.203 385.387 150.067 385.715 149.795C386.043 149.523 386.207 149.143 386.207 148.655C386.207 148.167 386.043 147.787 385.715 147.515C385.387 147.235 384.963 147.095 384.443 147.095H384.155L383.711 146.411L385.655 143.783H381.923V142.739H386.963V143.723L385.139 146.183ZM393.937 150.107C393.369 150.899 392.573 151.295 391.549 151.295C390.525 151.295 389.729 150.899 389.161 150.107C388.593 149.315 388.309 148.259 388.309 146.939C388.309 145.619 388.593 144.563 389.161 143.771C389.729 142.979 390.525 142.583 391.549 142.583C392.573 142.583 393.369 142.979 393.937 143.771C394.505 144.563 394.789 145.619 394.789 146.939C394.789 148.259 394.505 149.315 393.937 150.107ZM389.977 149.351C390.345 149.919 390.869 150.203 391.549 150.203C392.229 150.203 392.753 149.919 393.121 149.351C393.497 148.783 393.685 147.979 393.685 146.939C393.685 145.899 393.497 145.095 393.121 144.527C392.753 143.951 392.229 143.663 391.549 143.663C390.869 143.663 390.345 143.947 389.977 144.515C389.609 145.083 389.425 145.891 389.425 146.939C389.425 147.979 389.609 148.783 389.977 149.351Z" fill="#979797"/>
<path d="M357.916 74.5376C357.916 71.7762 360.155 69.5376 362.916 69.5376H374.444C377.205 69.5376 379.444 71.7762 379.444 74.5376V128.245H357.916V74.5376Z" fill="#E786D7"/>
<rect x="379.443" y="125.792" width="21.5272" height="1.63499" fill="#7F7FD5"/>
<path d="M437.277 146.109C437.917 146.229 438.441 146.505 438.849 146.937C439.257 147.369 439.461 147.917 439.461 148.581C439.461 149.397 439.181 150.041 438.621 150.513C438.061 150.985 437.381 151.221 436.581 151.221C435.941 151.221 435.373 151.077 434.877 150.789C434.381 150.493 434.029 150.069 433.821 149.517L434.757 148.965C435.005 149.741 435.613 150.129 436.581 150.129C437.101 150.129 437.525 149.993 437.853 149.721C438.181 149.449 438.345 149.069 438.345 148.581C438.345 148.093 438.181 147.713 437.853 147.441C437.525 147.161 437.101 147.021 436.581 147.021H436.293L435.849 146.337L437.793 143.709H434.061V142.665H439.101V143.649L437.277 146.109ZM446.075 150.033C445.507 150.825 444.711 151.221 443.687 151.221C442.663 151.221 441.867 150.825 441.299 150.033C440.731 149.241 440.447 148.185 440.447 146.865C440.447 145.545 440.731 144.489 441.299 143.697C441.867 142.905 442.663 142.509 443.687 142.509C444.711 142.509 445.507 142.905 446.075 143.697C446.643 144.489 446.927 145.545 446.927 146.865C446.927 148.185 446.643 149.241 446.075 150.033ZM442.115 149.277C442.483 149.845 443.007 150.129 443.687 150.129C444.367 150.129 444.891 149.845 445.259 149.277C445.635 148.709 445.823 147.905 445.823 146.865C445.823 145.825 445.635 145.021 445.259 144.453C444.891 143.877 444.367 143.589 443.687 143.589C443.007 143.589 442.483 143.873 442.115 144.441C441.747 145.009 441.563 145.817 441.563 146.865C441.563 147.905 441.747 148.709 442.115 149.277ZM448.366 147.885V146.877H452.746V147.885H448.366ZM457.434 146.109C458.074 146.229 458.598 146.505 459.006 146.937C459.414 147.369 459.618 147.917 459.618 148.581C459.618 149.397 459.338 150.041 458.778 150.513C458.218 150.985 457.538 151.221 456.738 151.221C456.098 151.221 455.53 151.077 455.034 150.789C454.538 150.493 454.186 150.069 453.978 149.517L454.914 148.965C455.162 149.741 455.77 150.129 456.738 150.129C457.258 150.129 457.682 149.993 458.01 149.721C458.338 149.449 458.502 149.069 458.502 148.581C458.502 148.093 458.338 147.713 458.01 147.441C457.682 147.161 457.258 147.021 456.738 147.021H456.45L456.006 146.337L457.95 143.709H454.218V142.665H459.258V143.649L457.434 146.109ZM463.245 145.941C464.037 145.941 464.705 146.177 465.249 146.649C465.801 147.113 466.077 147.757 466.077 148.581C466.077 149.397 465.797 150.041 465.237 150.513C464.677 150.985 463.997 151.221 463.197 151.221C462.557 151.221 461.985 151.069 461.481 150.765C460.977 150.453 460.625 150.005 460.425 149.421L461.373 148.881C461.485 149.289 461.701 149.601 462.021 149.817C462.341 150.025 462.733 150.129 463.197 150.129C463.725 150.129 464.153 149.993 464.481 149.721C464.809 149.449 464.973 149.069 464.973 148.581C464.973 148.093 464.809 147.713 464.481 147.441C464.153 147.161 463.733 147.021 463.221 147.021H460.845L461.157 142.665H465.753V143.709H462.165L462.021 145.941H463.245Z" fill="#979797"/>
<rect x="428.477" y="126.536" width="21.5272" height="1.63499" fill="#E786D7"/>
<rect x="450.004" y="126.536" width="21.5272" height="1.63499" fill="#7F7FD5"/>
<path d="M510.026 146.348C510.666 146.468 511.19 146.744 511.598 147.176C512.006 147.608 512.21 148.156 512.21 148.82C512.21 149.636 511.93 150.28 511.37 150.752C510.81 151.224 510.13 151.46 509.33 151.46C508.69 151.46 508.122 151.316 507.626 151.028C507.13 150.732 506.778 150.308 506.57 149.756L507.506 149.204C507.754 149.98 508.362 150.368 509.33 150.368C509.85 150.368 510.274 150.232 510.602 149.96C510.93 149.688 511.094 149.308 511.094 148.82C511.094 148.332 510.93 147.952 510.602 147.68C510.274 147.4 509.85 147.26 509.33 147.26H509.042L508.598 146.576L510.542 143.948H506.81V142.904H511.85V143.888L510.026 146.348ZM515.837 146.18C516.629 146.18 517.297 146.416 517.841 146.888C518.393 147.352 518.669 147.996 518.669 148.82C518.669 149.636 518.389 150.28 517.829 150.752C517.269 151.224 516.589 151.46 515.789 151.46C515.149 151.46 514.577 151.308 514.073 151.004C513.569 150.692 513.217 150.244 513.017 149.66L513.965 149.12C514.077 149.528 514.293 149.84 514.613 150.056C514.933 150.264 515.325 150.368 515.789 150.368C516.317 150.368 516.745 150.232 517.073 149.96C517.401 149.688 517.565 149.308 517.565 148.82C517.565 148.332 517.401 147.952 517.073 147.68C516.745 147.4 516.325 147.26 515.813 147.26H513.437L513.749 142.904H518.345V143.948H514.757L514.613 146.18H515.837ZM520.013 148.124V147.116H524.393V148.124H520.013ZM531.997 148.664V149.708H530.977V151.304H529.861V149.708H525.577V148.664L528.589 142.904H529.789L526.777 148.664H529.861V146.288H530.977V148.664H531.997ZM538.418 150.272C537.85 151.064 537.054 151.46 536.03 151.46C535.006 151.46 534.21 151.064 533.642 150.272C533.074 149.48 532.79 148.424 532.79 147.104C532.79 145.784 533.074 144.728 533.642 143.936C534.21 143.144 535.006 142.748 536.03 142.748C537.054 142.748 537.85 143.144 538.418 143.936C538.986 144.728 539.27 145.784 539.27 147.104C539.27 148.424 538.986 149.48 538.418 150.272ZM534.458 149.516C534.826 150.084 535.35 150.368 536.03 150.368C536.71 150.368 537.234 150.084 537.602 149.516C537.978 148.948 538.166 148.144 538.166 147.104C538.166 146.064 537.978 145.26 537.602 144.692C537.234 144.116 536.71 143.828 536.03 143.828C535.35 143.828 534.826 144.112 534.458 144.68C534.09 145.248 533.906 146.056 533.906 147.104C533.906 148.144 534.09 148.948 534.458 149.516Z" fill="#979797"/>
<path d="M498.037 103.537C498.037 100.775 500.275 98.5368 503.037 98.5368H514.564C517.325 98.5368 519.564 100.775 519.564 103.537V128.41H498.037V103.537Z" fill="#E786D7"/>
<rect x="521.564" y="126.775" width="21.5272" height="1.63499" fill="#7F7FD5"/>
<path d="M581.841 145.637L586.797 147.797V148.817L581.841 150.977V149.849L585.609 148.313L581.841 146.765V145.637ZM594.17 149.873V150.917H593.15V152.513H592.034V150.917H587.75V149.873L590.762 144.113H591.962L588.95 149.873H592.034V147.497H593.15V149.873H594.17ZM600.591 151.481C600.023 152.273 599.227 152.669 598.203 152.669C597.179 152.669 596.383 152.273 595.815 151.481C595.247 150.689 594.963 149.633 594.963 148.313C594.963 146.993 595.247 145.937 595.815 145.145C596.383 144.353 597.179 143.957 598.203 143.957C599.227 143.957 600.023 144.353 600.591 145.145C601.159 145.937 601.443 146.993 601.443 148.313C601.443 149.633 601.159 150.689 600.591 151.481ZM596.631 150.725C596.999 151.293 597.523 151.577 598.203 151.577C598.883 151.577 599.407 151.293 599.775 150.725C600.151 150.157 600.339 149.353 600.339 148.313C600.339 147.273 600.151 146.469 599.775 145.901C599.407 145.325 598.883 145.037 598.203 145.037C597.523 145.037 596.999 145.321 596.631 145.889C596.263 146.457 596.079 147.265 596.079 148.313C596.079 149.353 596.263 150.157 596.631 150.725Z" fill="#979797"/>
<rect x="573.055" y="126.985" width="21.5272" height="1.63499" fill="#E786D7"/>
<path d="M594.583 110.537C594.583 107.775 596.821 105.537 599.583 105.537H611.11C613.871 105.537 616.11 107.775 616.11 110.537V128.619H594.583V110.537Z" fill="#7F7FD5"/>
</svg>
