<svg width="61" height="50" viewBox="0 0 61 50" fill="none" xmlns="http://www.w3.org/2000/svg">
<path d="M60.2676 36.5352H36.7324C36.3276 36.5352 36 36.8627 36 37.2676C36 37.6724 36.3276 38 36.7324 38H60.2676C60.6724 38 61 37.6724 61 37.2676C61 36.8627 60.6724 36.5352 60.2676 36.5352Z" fill="#7F7FD5"/>
<path d="M42.6406 24.7676H38.1973C37.7924 24.7676 37.4648 25.0952 37.4648 25.5V29.1621H43.373V25.5C43.373 25.0952 43.0455 24.7676 42.6406 24.7676Z" fill="#7F7FD5"/>
<path d="M43.373 30.627H37.4648V35.0703H43.373V30.627Z" fill="#7F7FD5"/>
<path d="M50.6973 18.9082H46.3027C45.8979 18.9082 45.5703 19.2358 45.5703 19.6406V29.1621H51.4297V19.6406C51.4297 19.2358 51.1021 18.9082 50.6973 18.9082Z" fill="#7F7FD5"/>
<path d="M51.4297 30.627H45.5703V35.0703H51.4297V30.627Z" fill="#7F7FD5"/>
<path d="M58.8027 13H54.3594C53.9545 13 53.627 13.3276 53.627 13.7324V20.373H59.5352V13.7324C59.5352 13.3276 59.2076 13 58.8027 13Z" fill="#7F7FD5"/>
<path d="M59.5352 21.8379H53.627V35.0703H59.5352V21.8379Z" fill="#7F7FD5"/>
<path d="M0 0C2.20914 0 4 1.79086 4 4V46C4 48.2091 2.20914 50 0 50V0Z" fill="#7F7FD5"/>
</svg>
