<svg width="341" height="148" viewBox="0 0 341 148" fill="none" xmlns="http://www.w3.org/2000/svg">
<rect x="0.5" y="0.5" width="340" height="147" rx="12.5" fill="#FDFDFF" stroke="#EBEBEB"/>
<path d="M33.66 35.64H28.06V38.96H33.5V41.6H28.06V47H25.3V33H33.66V35.64ZM44.0711 45.76C43.0444 46.7733 41.7911 47.28 40.3111 47.28C38.8311 47.28 37.5778 46.7733 36.5511 45.76C35.5378 44.7333 35.0311 43.48 35.0311 42C35.0311 40.52 35.5378 39.2733 36.5511 38.26C37.5778 37.2333 38.8311 36.72 40.3111 36.72C41.7911 36.72 43.0444 37.2333 44.0711 38.26C45.0978 39.2733 45.6111 40.52 45.6111 42C45.6111 43.48 45.0978 44.7333 44.0711 45.76ZM38.3711 43.98C38.8911 44.5 39.5378 44.76 40.3111 44.76C41.0844 44.76 41.7311 44.5 42.2511 43.98C42.7711 43.46 43.0311 42.8 43.0311 42C43.0311 41.2 42.7711 40.54 42.2511 40.02C41.7311 39.5 41.0844 39.24 40.3111 39.24C39.5378 39.24 38.8911 39.5 38.3711 40.02C37.8644 40.54 37.6111 41.2 37.6111 42C37.6111 42.8 37.8644 43.46 38.3711 43.98ZM47.4261 47V32.4H50.0061V47H47.4261ZM52.3675 47V32.4H54.9475V47H52.3675ZM65.8289 45.76C64.8022 46.7733 63.5489 47.28 62.0689 47.28C60.5889 47.28 59.3356 46.7733 58.3089 45.76C57.2956 44.7333 56.7889 43.48 56.7889 42C56.7889 40.52 57.2956 39.2733 58.3089 38.26C59.3356 37.2333 60.5889 36.72 62.0689 36.72C63.5489 36.72 64.8022 37.2333 65.8289 38.26C66.8556 39.2733 67.3689 40.52 67.3689 42C67.3689 43.48 66.8556 44.7333 65.8289 45.76ZM60.1289 43.98C60.6489 44.5 61.2956 44.76 62.0689 44.76C62.8422 44.76 63.4889 44.5 64.0089 43.98C64.5289 43.46 64.7889 42.8 64.7889 42C64.7889 41.2 64.5289 40.54 64.0089 40.02C63.4889 39.5 62.8422 39.24 62.0689 39.24C61.2956 39.24 60.6489 39.5 60.1289 40.02C59.6222 40.54 59.3689 41.2 59.3689 42C59.3689 42.8 59.6222 43.46 60.1289 43.98ZM80.0533 37H82.7933L79.6133 47H77.1533L75.3133 40.94L73.4733 47H71.0133L67.8333 37H70.5733L72.2733 43.14L74.0933 37H76.5333L78.3533 43.16L80.0533 37ZM85.9733 43.06C86.3199 44.3133 87.2599 44.94 88.7933 44.94C89.7799 44.94 90.5266 44.6067 91.0333 43.94L93.1133 45.14C92.1266 46.5667 90.6733 47.28 88.7533 47.28C87.0999 47.28 85.7733 46.78 84.7733 45.78C83.7733 44.78 83.2733 43.52 83.2733 42C83.2733 40.4933 83.7666 39.24 84.7533 38.24C85.7399 37.2267 87.0066 36.72 88.5533 36.72C90.0199 36.72 91.2266 37.2267 92.1733 38.24C93.1333 39.2533 93.6133 40.5067 93.6133 42C93.6133 42.3333 93.5799 42.6867 93.5133 43.06H85.9733ZM85.9333 41.06H91.0333C90.8866 40.38 90.5799 39.8733 90.1133 39.54C89.6599 39.2067 89.1399 39.04 88.5533 39.04C87.8599 39.04 87.2866 39.22 86.8333 39.58C86.3799 39.9267 86.0799 40.42 85.9333 41.06ZM97.9944 38.72C98.2344 38.08 98.6277 37.6 99.1744 37.28C99.7344 36.96 100.354 36.8 101.034 36.8V39.68C100.248 39.5867 99.541 39.7467 98.9144 40.16C98.301 40.5733 97.9944 41.26 97.9944 42.22V47H95.4144V37H97.9944V38.72ZM104.611 39.84C104.611 40.1067 104.784 40.3267 105.131 40.5C105.491 40.66 105.924 40.8067 106.431 40.94C106.937 41.06 107.444 41.22 107.951 41.42C108.457 41.6067 108.884 41.9267 109.231 42.38C109.591 42.8333 109.771 43.4 109.771 44.08C109.771 45.1067 109.384 45.9 108.611 46.46C107.851 47.0067 106.897 47.28 105.751 47.28C103.697 47.28 102.297 46.4867 101.551 44.9L103.791 43.64C104.084 44.5067 104.737 44.94 105.751 44.94C106.671 44.94 107.131 44.6533 107.131 44.08C107.131 43.8133 106.951 43.6 106.591 43.44C106.244 43.2667 105.817 43.1133 105.311 42.98C104.804 42.8467 104.297 42.68 103.791 42.48C103.284 42.28 102.851 41.9667 102.491 41.54C102.144 41.1 101.971 40.5533 101.971 39.9C101.971 38.9133 102.331 38.14 103.051 37.58C103.784 37.0067 104.691 36.72 105.771 36.72C106.584 36.72 107.324 36.9067 107.991 37.28C108.657 37.64 109.184 38.16 109.571 38.84L107.371 40.04C107.051 39.36 106.517 39.02 105.771 39.02C105.437 39.02 105.157 39.0933 104.931 39.24C104.717 39.3867 104.611 39.5867 104.611 39.84Z" fill="#4F4F4F"/>
<path d="M269.182 108.16V109.82H265.702V113.3H264.042V109.82H260.582V108.16H264.042V104.7H265.702V108.16H269.182ZM279.28 102H280.88V116H279.04V104L276.06 104.88L275.6 103.28L279.28 102ZM286.709 107.94C285.803 107.94 285.049 107.64 284.449 107.04C283.849 106.44 283.549 105.707 283.549 104.84C283.549 103.987 283.849 103.26 284.449 102.66C285.063 102.047 285.816 101.74 286.709 101.74C287.616 101.74 288.369 102.04 288.969 102.64C289.569 103.24 289.869 103.973 289.869 104.84C289.869 105.707 289.569 106.44 288.969 107.04C288.383 107.64 287.629 107.94 286.709 107.94ZM285.549 106.02C285.856 106.327 286.243 106.48 286.709 106.48C287.176 106.48 287.556 106.32 287.849 106C288.156 105.68 288.309 105.293 288.309 104.84C288.309 104.387 288.156 104.007 287.849 103.7C287.556 103.38 287.176 103.22 286.709 103.22C286.243 103.22 285.856 103.38 285.549 103.7C285.256 104.007 285.109 104.387 285.109 104.84C285.109 105.307 285.256 105.7 285.549 106.02ZM284.489 114.02L293.789 103.62L294.769 104.16L285.449 114.58L284.489 114.02ZM295.009 115.34C294.409 115.94 293.656 116.24 292.749 116.24C291.843 116.24 291.089 115.94 290.489 115.34C289.889 114.74 289.589 114.007 289.589 113.14C289.589 112.273 289.889 111.54 290.489 110.94C291.089 110.34 291.843 110.04 292.749 110.04C293.656 110.04 294.409 110.34 295.009 110.94C295.609 111.54 295.909 112.273 295.909 113.14C295.909 114.007 295.609 114.74 295.009 115.34ZM291.589 114.3C291.896 114.607 292.283 114.76 292.749 114.76C293.216 114.76 293.596 114.607 293.889 114.3C294.196 113.98 294.349 113.593 294.349 113.14C294.349 112.687 294.196 112.307 293.889 112C293.596 111.68 293.216 111.52 292.749 111.52C292.283 111.52 291.896 111.68 291.589 112C291.296 112.307 291.149 112.687 291.149 113.14C291.149 113.593 291.296 113.98 291.589 114.3Z" fill="#979797"/>
<path d="M24.72 116V114.48L29.66 109.44C30.98 108.12 31.64 106.987 31.64 106.04C31.64 105.253 31.4 104.64 30.92 104.2C30.44 103.76 29.8533 103.54 29.16 103.54C27.84 103.54 26.88 104.167 26.28 105.42L24.72 104.5C25.16 103.593 25.7667 102.907 26.54 102.44C27.3267 101.973 28.1933 101.74 29.14 101.74C30.3133 101.74 31.3333 102.127 32.2 102.9C33.0667 103.673 33.5 104.713 33.5 106.02C33.5 107.433 32.6667 108.973 31 110.64L27.42 114.2H33.76V116H24.72ZM42.6092 108.76C43.2892 109.107 43.8226 109.573 44.2092 110.16C44.5959 110.747 44.7892 111.413 44.7892 112.16C44.7892 113.44 44.3426 114.447 43.4492 115.18C42.5559 115.9 41.4026 116.26 39.9892 116.26C38.5892 116.26 37.4426 115.9 36.5492 115.18C35.6559 114.447 35.2092 113.44 35.2092 112.16C35.2092 111.413 35.4026 110.747 35.7892 110.16C36.1759 109.573 36.7092 109.107 37.3892 108.76C36.2426 108.04 35.6692 107.02 35.6692 105.7C35.6692 104.433 36.0892 103.46 36.9292 102.78C37.7826 102.087 38.8026 101.74 39.9892 101.74C41.1892 101.74 42.2092 102.087 43.0492 102.78C43.9026 103.46 44.3292 104.433 44.3292 105.7C44.3292 107.02 43.7559 108.04 42.6092 108.76ZM39.9892 103.52C39.2826 103.52 38.6892 103.707 38.2092 104.08C37.7426 104.453 37.5092 105.007 37.5092 105.74C37.5092 106.447 37.7492 107 38.2292 107.4C38.7092 107.787 39.2959 107.98 39.9892 107.98C40.6826 107.98 41.2692 107.787 41.7492 107.4C42.2292 107 42.4692 106.447 42.4692 105.74C42.4692 105.007 42.2359 104.453 41.7692 104.08C41.3026 103.707 40.7092 103.52 39.9892 103.52ZM39.9892 114.48C40.8826 114.48 41.5959 114.273 42.1292 113.86C42.6759 113.433 42.9492 112.827 42.9492 112.04C42.9492 111.267 42.6759 110.673 42.1292 110.26C41.5959 109.833 40.8826 109.62 39.9892 109.62C39.1092 109.62 38.3959 109.833 37.8492 110.26C37.3159 110.673 37.0492 111.267 37.0492 112.04C37.0492 112.827 37.3159 113.433 37.8492 113.86C38.3959 114.273 39.1092 114.48 39.9892 114.48ZM53.703 108.76C54.383 109.107 54.9163 109.573 55.303 110.16C55.6896 110.747 55.883 111.413 55.883 112.16C55.883 113.44 55.4363 114.447 54.543 115.18C53.6496 115.9 52.4963 116.26 51.083 116.26C49.683 116.26 48.5363 115.9 47.643 115.18C46.7496 114.447 46.303 113.44 46.303 112.16C46.303 111.413 46.4963 110.747 46.883 110.16C47.2696 109.573 47.803 109.107 48.483 108.76C47.3363 108.04 46.763 107.02 46.763 105.7C46.763 104.433 47.183 103.46 48.023 102.78C48.8763 102.087 49.8963 101.74 51.083 101.74C52.283 101.74 53.303 102.087 54.143 102.78C54.9963 103.46 55.423 104.433 55.423 105.7C55.423 107.02 54.8496 108.04 53.703 108.76ZM51.083 103.52C50.3763 103.52 49.783 103.707 49.303 104.08C48.8363 104.453 48.603 105.007 48.603 105.74C48.603 106.447 48.843 107 49.323 107.4C49.803 107.787 50.3896 107.98 51.083 107.98C51.7763 107.98 52.363 107.787 52.843 107.4C53.323 107 53.563 106.447 53.563 105.74C53.563 105.007 53.3296 104.453 52.863 104.08C52.3963 103.707 51.803 103.52 51.083 103.52ZM51.083 114.48C51.9763 114.48 52.6896 114.273 53.223 113.86C53.7696 113.433 54.043 112.827 54.043 112.04C54.043 111.267 53.7696 110.673 53.223 110.26C52.6896 109.833 51.9763 109.62 51.083 109.62C50.203 109.62 49.4896 109.833 48.943 110.26C48.4096 110.673 48.143 111.267 48.143 112.04C48.143 112.827 48.4096 113.433 48.943 113.86C49.4896 114.273 50.203 114.48 51.083 114.48ZM68.4767 105.74C69.8767 105.74 71.0701 106.253 72.0567 107.28C73.0434 108.293 73.5367 109.533 73.5367 111C73.5367 112.467 73.0434 113.713 72.0567 114.74C71.0701 115.753 69.8767 116.26 68.4767 116.26C66.8234 116.26 65.5634 115.6 64.6967 114.28V120H62.9567V106H64.6967V107.72C65.5634 106.4 66.8234 105.74 68.4767 105.74ZM68.2567 114.58C69.2567 114.58 70.0967 114.24 70.7767 113.56C71.4567 112.867 71.7967 112.013 71.7967 111C71.7967 109.987 71.4567 109.14 70.7767 108.46C70.0967 107.767 69.2567 107.42 68.2567 107.42C67.2434 107.42 66.3967 107.767 65.7167 108.46C65.0367 109.14 64.6967 109.987 64.6967 111C64.6967 112.013 65.0367 112.867 65.7167 113.56C66.3967 114.24 67.2434 114.58 68.2567 114.58ZM76.833 111.8C77.0063 112.693 77.413 113.387 78.053 113.88C78.7063 114.373 79.5063 114.62 80.453 114.62C81.773 114.62 82.733 114.133 83.333 113.16L84.813 114C83.8396 115.507 82.373 116.26 80.413 116.26C78.8263 116.26 77.533 115.767 76.533 114.78C75.5463 113.78 75.053 112.52 75.053 111C75.053 109.493 75.5396 108.24 76.513 107.24C77.4863 106.24 78.7463 105.74 80.293 105.74C81.7596 105.74 82.953 106.26 83.873 107.3C84.8063 108.327 85.273 109.567 85.273 111.02C85.273 111.273 85.253 111.533 85.213 111.8H76.833ZM80.293 107.38C79.3596 107.38 78.5863 107.647 77.973 108.18C77.3596 108.7 76.9796 109.4 76.833 110.28H83.513C83.3663 109.333 82.993 108.613 82.393 108.12C81.793 107.627 81.093 107.38 80.293 107.38ZM95.6936 114.74C94.6669 115.753 93.4203 116.26 91.9536 116.26C90.4869 116.26 89.2403 115.753 88.2136 114.74C87.2003 113.727 86.6936 112.48 86.6936 111C86.6936 109.52 87.2003 108.273 88.2136 107.26C89.2403 106.247 90.4869 105.74 91.9536 105.74C93.4203 105.74 94.6669 106.247 95.6936 107.26C96.7203 108.273 97.2336 109.52 97.2336 111C97.2336 112.48 96.7203 113.727 95.6936 114.74ZM91.9536 114.56C92.9536 114.56 93.7936 114.22 94.4736 113.54C95.1536 112.86 95.4936 112.013 95.4936 111C95.4936 109.987 95.1536 109.14 94.4736 108.46C93.7936 107.78 92.9536 107.44 91.9536 107.44C90.9669 107.44 90.1336 107.78 89.4536 108.46C88.7736 109.14 88.4336 109.987 88.4336 111C88.4336 112.013 88.7736 112.86 89.4536 113.54C90.1336 114.22 90.9669 114.56 91.9536 114.56ZM104.805 105.74C106.205 105.74 107.398 106.253 108.385 107.28C109.372 108.293 109.865 109.533 109.865 111C109.865 112.467 109.372 113.713 108.385 114.74C107.398 115.753 106.205 116.26 104.805 116.26C103.152 116.26 101.892 115.6 101.025 114.28V120H99.2848V106H101.025V107.72C101.892 106.4 103.152 105.74 104.805 105.74ZM104.585 114.58C105.585 114.58 106.425 114.24 107.105 113.56C107.785 112.867 108.125 112.013 108.125 111C108.125 109.987 107.785 109.14 107.105 108.46C106.425 107.767 105.585 107.42 104.585 107.42C103.572 107.42 102.725 107.767 102.045 108.46C101.365 109.14 101.025 109.987 101.025 111C101.025 112.013 101.365 112.867 102.045 113.56C102.725 114.24 103.572 114.58 104.585 114.58ZM111.941 116V101.4H113.681V116H111.941ZM117.556 111.8C117.729 112.693 118.136 113.387 118.776 113.88C119.429 114.373 120.229 114.62 121.176 114.62C122.496 114.62 123.456 114.133 124.056 113.16L125.536 114C124.562 115.507 123.096 116.26 121.136 116.26C119.549 116.26 118.256 115.767 117.256 114.78C116.269 113.78 115.776 112.52 115.776 111C115.776 109.493 116.262 108.24 117.236 107.24C118.209 106.24 119.469 105.74 121.016 105.74C122.482 105.74 123.676 106.26 124.596 107.3C125.529 108.327 125.996 109.567 125.996 111.02C125.996 111.273 125.976 111.533 125.936 111.8H117.556ZM121.016 107.38C120.082 107.38 119.309 107.647 118.696 108.18C118.082 108.7 117.702 109.4 117.556 110.28H124.236C124.089 109.333 123.716 108.613 123.116 108.12C122.516 107.627 121.816 107.38 121.016 107.38Z" fill="#4F4F4F"/>
<circle cx="294.5" cy="40.5" r="2.5" transform="rotate(-90 294.5 40.5)" fill="#979797"/>
<circle cx="304.5" cy="40.5" r="2.5" transform="rotate(-90 304.5 40.5)" fill="#979797"/>
<circle cx="315.5" cy="40.5" r="2.5" transform="rotate(-90 315.5 40.5)" fill="#979797"/>
<path d="M306 108.077L311.5 103M311.5 103L317 108.077M311.5 103V115" stroke="#7F7FD5" stroke-width="2" stroke-linecap="round" stroke-linejoin="round"/>
</svg>
