<svg width="341" height="148" viewBox="0 0 341 148" fill="none" xmlns="http://www.w3.org/2000/svg">
<rect x="0.5" y="0.5" width="340" height="147" rx="12.5" fill="#FDFDFF" stroke="#EBEBEB"/>
<path d="M30.52 47.28C28.96 47.28 27.68 46.84 26.68 45.96C25.68 45.08 25.18 43.9 25.18 42.42V33H27.92V42.2C27.92 42.9333 28.1267 43.5133 28.54 43.94C28.9667 44.3667 29.6267 44.58 30.52 44.58C31.4133 44.58 32.0667 44.3667 32.48 43.94C32.9067 43.5133 33.12 42.9333 33.12 42.2V33H35.88V42.42C35.88 43.9 35.38 45.08 34.38 45.96C33.38 46.84 32.0933 47.28 30.52 47.28ZM43.8064 36.72C44.8997 36.72 45.7997 37.0867 46.5064 37.82C47.2264 38.5533 47.5864 39.5667 47.5864 40.86V47H45.0064V41.18C45.0064 40.5133 44.8264 40.0067 44.4664 39.66C44.1064 39.3 43.6264 39.12 43.0264 39.12C42.3597 39.12 41.8264 39.3267 41.4264 39.74C41.0264 40.1533 40.8264 40.7733 40.8264 41.6V47H38.2464V37H40.8264V38.12C41.4531 37.1867 42.4464 36.72 43.8064 36.72ZM51.0694 35.8C50.6427 35.8 50.2694 35.6467 49.9494 35.34C49.6427 35.02 49.4894 34.6467 49.4894 34.22C49.4894 33.7933 49.6427 33.42 49.9494 33.1C50.2694 32.78 50.6427 32.62 51.0694 32.62C51.5094 32.62 51.8827 32.78 52.1894 33.1C52.5094 33.42 52.6694 33.7933 52.6694 34.22C52.6694 34.6467 52.5094 35.02 52.1894 35.34C51.8827 35.6467 51.5094 35.8 51.0694 35.8ZM49.7894 47V37H52.3694V47H49.7894ZM62.3108 37H64.8908V51H62.3108V45.82C61.5508 46.7933 60.4708 47.28 59.0708 47.28C57.7241 47.28 56.5708 46.7733 55.6108 45.76C54.6641 44.7333 54.1908 43.48 54.1908 42C54.1908 40.52 54.6641 39.2733 55.6108 38.26C56.5708 37.2333 57.7241 36.72 59.0708 36.72C60.4708 36.72 61.5508 37.2067 62.3108 38.18V37ZM57.5508 44.04C58.0841 44.56 58.7508 44.82 59.5508 44.82C60.3508 44.82 61.0108 44.56 61.5308 44.04C62.0508 43.5067 62.3108 42.8267 62.3108 42C62.3108 41.1733 62.0508 40.5 61.5308 39.98C61.0108 39.4467 60.3508 39.18 59.5508 39.18C58.7508 39.18 58.0841 39.4467 57.5508 39.98C57.0308 40.5 56.7708 41.1733 56.7708 42C56.7708 42.8267 57.0308 43.5067 57.5508 44.04ZM73.8503 37H76.4303V47H73.8503V45.88C73.2236 46.8133 72.2303 47.28 70.8703 47.28C69.777 47.28 68.8703 46.9133 68.1503 46.18C67.4436 45.4467 67.0903 44.4333 67.0903 43.14V37H69.6703V42.82C69.6703 43.4867 69.8503 44 70.2103 44.36C70.5703 44.7067 71.0503 44.88 71.6503 44.88C72.317 44.88 72.8503 44.6733 73.2503 44.26C73.6503 43.8467 73.8503 43.2267 73.8503 42.4V37ZM80.9733 43.06C81.3199 44.3133 82.2599 44.94 83.7933 44.94C84.7799 44.94 85.5266 44.6067 86.0333 43.94L88.1133 45.14C87.1266 46.5667 85.6733 47.28 83.7533 47.28C82.0999 47.28 80.7733 46.78 79.7733 45.78C78.7733 44.78 78.2733 43.52 78.2733 42C78.2733 40.4933 78.7666 39.24 79.7533 38.24C80.7399 37.2267 82.0066 36.72 83.5533 36.72C85.0199 36.72 86.2266 37.2267 87.1733 38.24C88.1333 39.2533 88.6133 40.5067 88.6133 42C88.6133 42.3333 88.5799 42.6867 88.5133 43.06H80.9733ZM80.9333 41.06H86.0333C85.8866 40.38 85.5799 39.8733 85.1133 39.54C84.6599 39.2067 84.1399 39.04 83.5533 39.04C82.8599 39.04 82.2866 39.22 81.8333 39.58C81.3799 39.9267 81.0799 40.42 80.9333 41.06ZM101.994 37H104.834L101.034 47H98.0944L94.2944 37H97.1344L99.5544 44L101.994 37ZM107.358 35.8C106.932 35.8 106.558 35.6467 106.238 35.34C105.932 35.02 105.778 34.6467 105.778 34.22C105.778 33.7933 105.932 33.42 106.238 33.1C106.558 32.78 106.932 32.62 107.358 32.62C107.798 32.62 108.172 32.78 108.478 33.1C108.798 33.42 108.958 33.7933 108.958 34.22C108.958 34.6467 108.798 35.02 108.478 35.34C108.172 35.6467 107.798 35.8 107.358 35.8ZM106.078 47V37H108.658V47H106.078ZM113.322 39.84C113.322 40.1067 113.495 40.3267 113.842 40.5C114.202 40.66 114.635 40.8067 115.142 40.94C115.648 41.06 116.155 41.22 116.662 41.42C117.168 41.6067 117.595 41.9267 117.942 42.38C118.302 42.8333 118.482 43.4 118.482 44.08C118.482 45.1067 118.095 45.9 117.322 46.46C116.562 47.0067 115.608 47.28 114.462 47.28C112.408 47.28 111.008 46.4867 110.262 44.9L112.502 43.64C112.795 44.5067 113.448 44.94 114.462 44.94C115.382 44.94 115.842 44.6533 115.842 44.08C115.842 43.8133 115.662 43.6 115.302 43.44C114.955 43.2667 114.528 43.1133 114.022 42.98C113.515 42.8467 113.008 42.68 112.502 42.48C111.995 42.28 111.562 41.9667 111.202 41.54C110.855 41.1 110.682 40.5533 110.682 39.9C110.682 38.9133 111.042 38.14 111.762 37.58C112.495 37.0067 113.402 36.72 114.482 36.72C115.295 36.72 116.035 36.9067 116.702 37.28C117.368 37.64 117.895 38.16 118.282 38.84L116.082 40.04C115.762 39.36 115.228 39.02 114.482 39.02C114.148 39.02 113.868 39.0933 113.642 39.24C113.428 39.3867 113.322 39.5867 113.322 39.84ZM121.421 35.8C120.994 35.8 120.621 35.6467 120.301 35.34C119.994 35.02 119.841 34.6467 119.841 34.22C119.841 33.7933 119.994 33.42 120.301 33.1C120.621 32.78 120.994 32.62 121.421 32.62C121.861 32.62 122.234 32.78 122.541 33.1C122.861 33.42 123.021 33.7933 123.021 34.22C123.021 34.6467 122.861 35.02 122.541 35.34C122.234 35.6467 121.861 35.8 121.421 35.8ZM120.141 47V37H122.721V47H120.141ZM130.802 39.48H128.542V43.64C128.542 43.9867 128.629 44.24 128.802 44.4C128.976 44.56 129.229 44.6533 129.562 44.68C129.896 44.6933 130.309 44.6867 130.802 44.66V47C129.029 47.2 127.776 47.0333 127.042 46.5C126.322 45.9667 125.962 45.0133 125.962 43.64V39.48H124.222V37H125.962V34.98L128.542 34.2V37H130.802V39.48ZM140.829 45.76C139.802 46.7733 138.549 47.28 137.069 47.28C135.589 47.28 134.336 46.7733 133.309 45.76C132.296 44.7333 131.789 43.48 131.789 42C131.789 40.52 132.296 39.2733 133.309 38.26C134.336 37.2333 135.589 36.72 137.069 36.72C138.549 36.72 139.802 37.2333 140.829 38.26C141.856 39.2733 142.369 40.52 142.369 42C142.369 43.48 141.856 44.7333 140.829 45.76ZM135.129 43.98C135.649 44.5 136.296 44.76 137.069 44.76C137.842 44.76 138.489 44.5 139.009 43.98C139.529 43.46 139.789 42.8 139.789 42C139.789 41.2 139.529 40.54 139.009 40.02C138.489 39.5 137.842 39.24 137.069 39.24C136.296 39.24 135.649 39.5 135.129 40.02C134.622 40.54 134.369 41.2 134.369 42C134.369 42.8 134.622 43.46 135.129 43.98ZM146.764 38.72C147.004 38.08 147.397 37.6 147.944 37.28C148.504 36.96 149.124 36.8 149.804 36.8V39.68C149.017 39.5867 148.311 39.7467 147.684 40.16C147.071 40.5733 146.764 41.26 146.764 42.22V47H144.184V37H146.764V38.72ZM153.38 39.84C153.38 40.1067 153.554 40.3267 153.9 40.5C154.26 40.66 154.694 40.8067 155.2 40.94C155.707 41.06 156.214 41.22 156.72 41.42C157.227 41.6067 157.654 41.9267 158 42.38C158.36 42.8333 158.54 43.4 158.54 44.08C158.54 45.1067 158.154 45.9 157.38 46.46C156.62 47.0067 155.667 47.28 154.52 47.28C152.467 47.28 151.067 46.4867 150.32 44.9L152.56 43.64C152.854 44.5067 153.507 44.94 154.52 44.94C155.44 44.94 155.9 44.6533 155.9 44.08C155.9 43.8133 155.72 43.6 155.36 43.44C155.014 43.2667 154.587 43.1133 154.08 42.98C153.574 42.8467 153.067 42.68 152.56 42.48C152.054 42.28 151.62 41.9667 151.26 41.54C150.914 41.1 150.74 40.5533 150.74 39.9C150.74 38.9133 151.1 38.14 151.82 37.58C152.554 37.0067 153.46 36.72 154.54 36.72C155.354 36.72 156.094 36.9067 156.76 37.28C157.427 37.64 157.954 38.16 158.34 38.84L156.14 40.04C155.82 39.36 155.287 39.02 154.54 39.02C154.207 39.02 153.927 39.0933 153.7 39.24C153.487 39.3867 153.38 39.5867 153.38 39.84Z" fill="#4F4F4F"/>
<path d="M243.664 110.7V109.02H250.964V110.7H243.664ZM261.417 102H263.017V116H261.177V104L258.197 104.88L257.737 103.28L261.417 102ZM268.506 113.94L267.206 118.8H265.706L266.506 113.94H268.506ZM270.005 102H278.745V103.66L273.645 116H271.705L276.765 103.76H270.005V102ZM283.709 107.94C282.803 107.94 282.049 107.64 281.449 107.04C280.849 106.44 280.549 105.707 280.549 104.84C280.549 103.987 280.849 103.26 281.449 102.66C282.063 102.047 282.816 101.74 283.709 101.74C284.616 101.74 285.369 102.04 285.969 102.64C286.569 103.24 286.869 103.973 286.869 104.84C286.869 105.707 286.569 106.44 285.969 107.04C285.383 107.64 284.629 107.94 283.709 107.94ZM282.549 106.02C282.856 106.327 283.243 106.48 283.709 106.48C284.176 106.48 284.556 106.32 284.849 106C285.156 105.68 285.309 105.293 285.309 104.84C285.309 104.387 285.156 104.007 284.849 103.7C284.556 103.38 284.176 103.22 283.709 103.22C283.243 103.22 282.856 103.38 282.549 103.7C282.256 104.007 282.109 104.387 282.109 104.84C282.109 105.307 282.256 105.7 282.549 106.02ZM281.489 114.02L290.789 103.62L291.769 104.16L282.449 114.58L281.489 114.02ZM292.009 115.34C291.409 115.94 290.656 116.24 289.749 116.24C288.843 116.24 288.089 115.94 287.489 115.34C286.889 114.74 286.589 114.007 286.589 113.14C286.589 112.273 286.889 111.54 287.489 110.94C288.089 110.34 288.843 110.04 289.749 110.04C290.656 110.04 291.409 110.34 292.009 110.94C292.609 111.54 292.909 112.273 292.909 113.14C292.909 114.007 292.609 114.74 292.009 115.34ZM288.589 114.3C288.896 114.607 289.283 114.76 289.749 114.76C290.216 114.76 290.596 114.607 290.889 114.3C291.196 113.98 291.349 113.593 291.349 113.14C291.349 112.687 291.196 112.307 290.889 112C290.596 111.68 290.216 111.52 289.749 111.52C289.283 111.52 288.896 111.68 288.589 112C288.296 112.307 288.149 112.687 288.149 113.14C288.149 113.593 288.296 113.98 288.589 114.3Z" fill="#979797"/>
<path d="M29.38 106.84C30.78 106.84 31.9333 107.28 32.84 108.16C33.7467 109.027 34.2 110.153 34.2 111.54C34.2 112.927 33.7467 114.06 32.84 114.94C31.9333 115.82 30.78 116.26 29.38 116.26C27.9667 116.26 26.8067 115.82 25.9 114.94C25.0067 114.06 24.56 112.927 24.56 111.54C24.56 110.46 24.84 109.527 25.4 108.74L29.9 102H32.02L28.72 106.88C29.0133 106.853 29.2333 106.84 29.38 106.84ZM27.22 113.68C27.78 114.213 28.5 114.48 29.38 114.48C30.26 114.48 30.9733 114.213 31.52 113.68C32.08 113.133 32.36 112.42 32.36 111.54C32.36 110.66 32.08 109.953 31.52 109.42C30.9733 108.887 30.26 108.62 29.38 108.62C28.4867 108.62 27.7667 108.887 27.22 109.42C26.6733 109.953 26.4 110.66 26.4 111.54C26.4 112.42 26.6733 113.133 27.22 113.68ZM44.3563 106.44C44.3563 107.52 44.0696 108.46 43.4963 109.26H43.5163L38.9963 116H36.8963L40.2163 111.1C39.9229 111.127 39.6963 111.14 39.5363 111.14C38.1229 111.14 36.9629 110.707 36.0563 109.84C35.1629 108.96 34.7163 107.827 34.7163 106.44C34.7163 105.053 35.1629 103.927 36.0563 103.06C36.9629 102.18 38.1229 101.74 39.5363 101.74C40.9496 101.74 42.1029 102.18 42.9963 103.06C43.9029 103.927 44.3563 105.053 44.3563 106.44ZM37.3763 104.32C36.8296 104.853 36.5563 105.56 36.5563 106.44C36.5563 107.32 36.8296 108.033 37.3763 108.58C37.9363 109.113 38.6563 109.38 39.5363 109.38C40.4163 109.38 41.1296 109.113 41.6763 108.58C42.2363 108.033 42.5163 107.32 42.5163 106.44C42.5163 105.56 42.2429 104.853 41.6963 104.32C41.1496 103.787 40.4296 103.52 39.5363 103.52C38.6563 103.52 37.9363 103.787 37.3763 104.32ZM56.758 105.74C58.158 105.74 59.3513 106.253 60.338 107.28C61.3246 108.293 61.818 109.533 61.818 111C61.818 112.467 61.3246 113.713 60.338 114.74C59.3513 115.753 58.158 116.26 56.758 116.26C55.1046 116.26 53.8446 115.6 52.978 114.28V120H51.238V106H52.978V107.72C53.8446 106.4 55.1046 105.74 56.758 105.74ZM56.538 114.58C57.538 114.58 58.378 114.24 59.058 113.56C59.738 112.867 60.078 112.013 60.078 111C60.078 109.987 59.738 109.14 59.058 108.46C58.378 107.767 57.538 107.42 56.538 107.42C55.5246 107.42 54.678 107.767 53.998 108.46C53.318 109.14 52.978 109.987 52.978 111C52.978 112.013 53.318 112.867 53.998 113.56C54.678 114.24 55.5246 114.58 56.538 114.58ZM65.1142 111.8C65.2876 112.693 65.6942 113.387 66.3342 113.88C66.9876 114.373 67.7876 114.62 68.7342 114.62C70.0542 114.62 71.0142 114.133 71.6142 113.16L73.0942 114C72.1209 115.507 70.6542 116.26 68.6942 116.26C67.1076 116.26 65.8142 115.767 64.8142 114.78C63.8276 113.78 63.3342 112.52 63.3342 111C63.3342 109.493 63.8209 108.24 64.7942 107.24C65.7676 106.24 67.0276 105.74 68.5742 105.74C70.0409 105.74 71.2342 106.26 72.1542 107.3C73.0876 108.327 73.5542 109.567 73.5542 111.02C73.5542 111.273 73.5342 111.533 73.4942 111.8H65.1142ZM68.5742 107.38C67.6409 107.38 66.8676 107.647 66.2542 108.18C65.6409 108.7 65.2609 109.4 65.1142 110.28H71.7942C71.6476 109.333 71.2742 108.613 70.6742 108.12C70.0742 107.627 69.3742 107.38 68.5742 107.38ZM83.9748 114.74C82.9482 115.753 81.7015 116.26 80.2348 116.26C78.7682 116.26 77.5215 115.753 76.4948 114.74C75.4815 113.727 74.9748 112.48 74.9748 111C74.9748 109.52 75.4815 108.273 76.4948 107.26C77.5215 106.247 78.7682 105.74 80.2348 105.74C81.7015 105.74 82.9482 106.247 83.9748 107.26C85.0015 108.273 85.5148 109.52 85.5148 111C85.5148 112.48 85.0015 113.727 83.9748 114.74ZM80.2348 114.56C81.2348 114.56 82.0748 114.22 82.7548 113.54C83.4348 112.86 83.7748 112.013 83.7748 111C83.7748 109.987 83.4348 109.14 82.7548 108.46C82.0748 107.78 81.2348 107.44 80.2348 107.44C79.2482 107.44 78.4148 107.78 77.7348 108.46C77.0548 109.14 76.7148 109.987 76.7148 111C76.7148 112.013 77.0548 112.86 77.7348 113.54C78.4148 114.22 79.2482 114.56 80.2348 114.56ZM93.0861 105.74C94.4861 105.74 95.6794 106.253 96.6661 107.28C97.6528 108.293 98.1461 109.533 98.1461 111C98.1461 112.467 97.6528 113.713 96.6661 114.74C95.6794 115.753 94.4861 116.26 93.0861 116.26C91.4328 116.26 90.1728 115.6 89.3061 114.28V120H87.5661V106H89.3061V107.72C90.1728 106.4 91.4328 105.74 93.0861 105.74ZM92.8661 114.58C93.8661 114.58 94.7061 114.24 95.3861 113.56C96.0661 112.867 96.4061 112.013 96.4061 111C96.4061 109.987 96.0661 109.14 95.3861 108.46C94.7061 107.767 93.8661 107.42 92.8661 107.42C91.8528 107.42 91.0061 107.767 90.3261 108.46C89.6461 109.14 89.3061 109.987 89.3061 111C89.3061 112.013 89.6461 112.867 90.3261 113.56C91.0061 114.24 91.8528 114.58 92.8661 114.58ZM100.222 116V101.4H101.962V116H100.222ZM105.837 111.8C106.01 112.693 106.417 113.387 107.057 113.88C107.71 114.373 108.51 114.62 109.457 114.62C110.777 114.62 111.737 114.133 112.337 113.16L113.817 114C112.844 115.507 111.377 116.26 109.417 116.26C107.83 116.26 106.537 115.767 105.537 114.78C104.55 113.78 104.057 112.52 104.057 111C104.057 109.493 104.544 108.24 105.517 107.24C106.49 106.24 107.75 105.74 109.297 105.74C110.764 105.74 111.957 106.26 112.877 107.3C113.81 108.327 114.277 109.567 114.277 111.02C114.277 111.273 114.257 111.533 114.217 111.8H105.837ZM109.297 107.38C108.364 107.38 107.59 107.647 106.977 108.18C106.364 108.7 105.984 109.4 105.837 110.28H112.517C112.37 109.333 111.997 108.613 111.397 108.12C110.797 107.627 110.097 107.38 109.297 107.38Z" fill="#4F4F4F"/>
<circle cx="293.5" cy="40.5" r="2.5" transform="rotate(-90 293.5 40.5)" fill="#979797"/>
<circle cx="303.5" cy="40.5" r="2.5" transform="rotate(-90 303.5 40.5)" fill="#979797"/>
<circle cx="314.5" cy="40.5" r="2.5" transform="rotate(-90 314.5 40.5)" fill="#979797"/>
<path d="M317 109.923L311.5 115M311.5 115L306 109.923M311.5 115L311.5 103" stroke="#E786D7" stroke-width="2" stroke-linecap="round" stroke-linejoin="round"/>
</svg>
