<svg width="675" height="242" viewBox="0 0 675 242" fill="none" xmlns="http://www.w3.org/2000/svg">
<rect x="0.5" y="0.5" width="674" height="241" rx="12.5" fill="#FDFDFF" stroke="#EBEBEB"/>
<path d="M39.04 37.48V38.56C39.04 40.56 38.4 42.18 37.12 43.42C35.84 44.66 34.1867 45.28 32.16 45.28C30 45.28 28.2067 44.58 26.78 43.18C25.3667 41.7667 24.66 40.0467 24.66 38.02C24.66 35.98 25.36 34.2533 26.76 32.84C28.1733 31.4267 29.92 30.72 32 30.72C33.3067 30.72 34.5 31.02 35.58 31.62C36.66 32.2067 37.5 32.9933 38.1 33.98L35.74 35.34C35.4067 34.7667 34.9 34.3 34.22 33.94C33.5533 33.58 32.8067 33.4 31.98 33.4C30.6467 33.4 29.5467 33.84 28.68 34.72C27.8267 35.5867 27.4 36.6867 27.4 38.02C27.4 39.34 27.8333 40.4333 28.7 41.3C29.58 42.1533 30.74 42.58 32.18 42.58C33.2467 42.58 34.1267 42.3467 34.82 41.88C35.5267 41.4 36.0067 40.7467 36.26 39.92H32.02V37.48H39.04ZM43.0631 41.06C43.4098 42.3133 44.3498 42.94 45.8831 42.94C46.8698 42.94 47.6165 42.6067 48.1231 41.94L50.2031 43.14C49.2165 44.5667 47.7631 45.28 45.8431 45.28C44.1898 45.28 42.8631 44.78 41.8631 43.78C40.8631 42.78 40.3631 41.52 40.3631 40C40.3631 38.4933 40.8565 37.24 41.8431 36.24C42.8298 35.2267 44.0965 34.72 45.6431 34.72C47.1098 34.72 48.3165 35.2267 49.2631 36.24C50.2231 37.2533 50.7031 38.5067 50.7031 40C50.7031 40.3333 50.6698 40.6867 50.6031 41.06H43.0631ZM43.0231 39.06H48.1231C47.9765 38.38 47.6698 37.8733 47.2031 37.54C46.7498 37.2067 46.2298 37.04 45.6431 37.04C44.9498 37.04 44.3765 37.22 43.9231 37.58C43.4698 37.9267 43.1698 38.42 43.0231 39.06ZM58.0642 34.72C59.1576 34.72 60.0576 35.0867 60.7642 35.82C61.4842 36.5533 61.8442 37.5667 61.8442 38.86V45H59.2642V39.18C59.2642 38.5133 59.0842 38.0067 58.7242 37.66C58.3642 37.3 57.8842 37.12 57.2842 37.12C56.6176 37.12 56.0842 37.3267 55.6842 37.74C55.2842 38.1533 55.0842 38.7733 55.0842 39.6V45H52.5042V35H55.0842V36.12C55.7109 35.1867 56.7042 34.72 58.0642 34.72ZM71.6272 31H74.2072V45H71.6272V43.82C70.8672 44.7933 69.7872 45.28 68.3872 45.28C67.0405 45.28 65.8872 44.7733 64.9272 43.76C63.9805 42.7333 63.5072 41.48 63.5072 40C63.5072 38.52 63.9805 37.2733 64.9272 36.26C65.8872 35.2333 67.0405 34.72 68.3872 34.72C69.7872 34.72 70.8672 35.2067 71.6272 36.18V31ZM66.8672 42.04C67.4005 42.56 68.0672 42.82 68.8672 42.82C69.6672 42.82 70.3272 42.56 70.8472 42.04C71.3672 41.5067 71.6272 40.8267 71.6272 40C71.6272 39.1733 71.3672 38.5 70.8472 37.98C70.3272 37.4467 69.6672 37.18 68.8672 37.18C68.0672 37.18 67.4005 37.4467 66.8672 37.98C66.3472 38.5 66.0872 39.1733 66.0872 40C66.0872 40.8267 66.3472 41.5067 66.8672 42.04ZM78.7467 41.06C79.0934 42.3133 80.0334 42.94 81.5667 42.94C82.5534 42.94 83.3001 42.6067 83.8067 41.94L85.8867 43.14C84.9001 44.5667 83.4467 45.28 81.5267 45.28C79.8734 45.28 78.5467 44.78 77.5467 43.78C76.5467 42.78 76.0467 41.52 76.0467 40C76.0467 38.4933 76.5401 37.24 77.5267 36.24C78.5134 35.2267 79.7801 34.72 81.3267 34.72C82.7934 34.72 84.0001 35.2267 84.9467 36.24C85.9067 37.2533 86.3867 38.5067 86.3867 40C86.3867 40.3333 86.3534 40.6867 86.2867 41.06H78.7467ZM78.7067 39.06H83.8067C83.6601 38.38 83.3534 37.8733 82.8867 37.54C82.4334 37.2067 81.9134 37.04 81.3267 37.04C80.6334 37.04 80.0601 37.22 79.6067 37.58C79.1534 37.9267 78.8534 38.42 78.7067 39.06ZM90.7678 36.72C91.0078 36.08 91.4011 35.6 91.9478 35.28C92.5078 34.96 93.1278 34.8 93.8078 34.8V37.68C93.0211 37.5867 92.3145 37.7467 91.6878 38.16C91.0745 38.5733 90.7678 39.26 90.7678 40.22V45H88.1878V35H90.7678V36.72ZM100.937 47H99.7967L107.797 29H108.937L100.937 47ZM124.905 45L124.065 42.48H118.485L117.645 45H114.665L119.565 31H122.985L127.905 45H124.905ZM119.365 39.9H123.205L121.285 34.18L119.365 39.9ZM136.531 35H139.051V44.52C139.051 46.0667 138.538 47.2467 137.511 48.06C136.498 48.8733 135.271 49.28 133.831 49.28C132.751 49.28 131.798 49.0733 130.971 48.66C130.158 48.2467 129.531 47.64 129.091 46.84L131.291 45.58C131.798 46.5133 132.671 46.98 133.911 46.98C134.725 46.98 135.365 46.7667 135.831 46.34C136.298 45.9133 136.531 45.3067 136.531 44.52V43.44C135.771 44.4533 134.705 44.96 133.331 44.96C131.918 44.96 130.731 44.4667 129.771 43.48C128.825 42.48 128.351 41.2667 128.351 39.84C128.351 38.4267 128.831 37.22 129.791 36.22C130.751 35.22 131.931 34.72 133.331 34.72C134.705 34.72 135.771 35.2267 136.531 36.24V35ZM131.711 41.82C132.245 42.3267 132.918 42.58 133.731 42.58C134.545 42.58 135.211 42.3267 135.731 41.82C136.265 41.3 136.531 40.64 136.531 39.84C136.531 39.0533 136.265 38.4067 135.731 37.9C135.211 37.38 134.545 37.12 133.731 37.12C132.918 37.12 132.245 37.38 131.711 37.9C131.191 38.4067 130.931 39.0533 130.931 39.84C130.931 40.64 131.191 41.3 131.711 41.82ZM143.571 41.06C143.918 42.3133 144.858 42.94 146.391 42.94C147.378 42.94 148.124 42.6067 148.631 41.94L150.711 43.14C149.724 44.5667 148.271 45.28 146.351 45.28C144.698 45.28 143.371 44.78 142.371 43.78C141.371 42.78 140.871 41.52 140.871 40C140.871 38.4933 141.364 37.24 142.351 36.24C143.338 35.2267 144.604 34.72 146.151 34.72C147.618 34.72 148.824 35.2267 149.771 36.24C150.731 37.2533 151.211 38.5067 151.211 40C151.211 40.3333 151.178 40.6867 151.111 41.06H143.571ZM143.531 39.06H148.631C148.484 38.38 148.178 37.8733 147.711 37.54C147.258 37.2067 146.738 37.04 146.151 37.04C145.458 37.04 144.884 37.22 144.431 37.58C143.978 37.9267 143.678 38.42 143.531 39.06Z" fill="#4F4F4F"/>
<rect x="508.5" y="30.5" width="15" height="15" rx="4.5" fill="#E786D7" stroke="#E786D7"/>
<path d="M539.668 36H541.036L539.152 42H537.88L536.632 37.956L535.372 42H534.1L532.216 36H533.584L534.748 40.14L536.008 36H537.244L538.492 40.14L539.668 36ZM544.588 42.156C543.708 42.156 542.96 41.852 542.344 41.244C541.728 40.636 541.42 39.888 541.42 39C541.42 38.112 541.728 37.364 542.344 36.756C542.96 36.148 543.708 35.844 544.588 35.844C545.476 35.844 546.224 36.148 546.832 36.756C547.448 37.364 547.756 38.112 547.756 39C547.756 39.888 547.448 40.636 546.832 41.244C546.224 41.852 545.476 42.156 544.588 42.156ZM543.256 40.356C543.616 40.716 544.06 40.896 544.588 40.896C545.116 40.896 545.56 40.716 545.92 40.356C546.28 39.996 546.46 39.544 546.46 39C546.46 38.456 546.28 38.004 545.92 37.644C545.56 37.284 545.116 37.104 544.588 37.104C544.06 37.104 543.616 37.284 543.256 37.644C542.896 38.004 542.716 38.456 542.716 39C542.716 39.544 542.896 39.996 543.256 40.356ZM555.48 35.844C556.16 35.844 556.708 36.064 557.124 36.504C557.54 36.944 557.748 37.536 557.748 38.28V42H556.452V38.364C556.452 37.948 556.348 37.628 556.14 37.404C555.932 37.172 555.648 37.056 555.288 37.056C554.888 37.056 554.568 37.188 554.328 37.452C554.096 37.716 553.98 38.112 553.98 38.64V42H552.684V38.364C552.684 37.948 552.584 37.628 552.384 37.404C552.192 37.172 551.916 37.056 551.556 37.056C551.164 37.056 550.844 37.192 550.596 37.464C550.348 37.728 550.224 38.12 550.224 38.64V42H548.928V36H550.224V36.72C550.608 36.136 551.18 35.844 551.94 35.844C552.708 35.844 553.276 36.16 553.644 36.792C554.044 36.16 554.656 35.844 555.48 35.844ZM560.155 39.552C560.251 40.008 560.471 40.36 560.815 40.608C561.159 40.848 561.579 40.968 562.075 40.968C562.763 40.968 563.279 40.72 563.623 40.224L564.691 40.848C564.099 41.72 563.223 42.156 562.063 42.156C561.087 42.156 560.299 41.86 559.699 41.268C559.099 40.668 558.799 39.912 558.799 39C558.799 38.104 559.095 37.356 559.687 36.756C560.279 36.148 561.039 35.844 561.967 35.844C562.847 35.844 563.567 36.152 564.127 36.768C564.695 37.384 564.979 38.132 564.979 39.012C564.979 39.148 564.963 39.328 564.931 39.552H560.155ZM560.143 38.496H563.671C563.583 38.008 563.379 37.64 563.059 37.392C562.747 37.144 562.379 37.02 561.955 37.02C561.475 37.02 561.075 37.152 560.755 37.416C560.435 37.68 560.231 38.04 560.143 38.496ZM569.275 35.844C569.963 35.844 570.519 36.064 570.943 36.504C571.367 36.944 571.579 37.548 571.579 38.316V42H570.283V38.448C570.283 38 570.163 37.656 569.923 37.416C569.683 37.176 569.355 37.056 568.939 37.056C568.483 37.056 568.115 37.2 567.835 37.488C567.555 37.768 567.415 38.2 567.415 38.784V42H566.119V36H567.415V36.768C567.807 36.152 568.427 35.844 569.275 35.844Z" fill="#4F4F4F"/>
<rect x="585.5" y="30.5" width="15" height="15" rx="4.5" fill="#7F7FD5" stroke="#7F7FD5"/>
<path d="M614.308 35.844C614.988 35.844 615.536 36.064 615.952 36.504C616.368 36.944 616.576 37.536 616.576 38.28V42H615.28V38.364C615.28 37.948 615.176 37.628 614.968 37.404C614.76 37.172 614.476 37.056 614.116 37.056C613.716 37.056 613.396 37.188 613.156 37.452C612.924 37.716 612.808 38.112 612.808 38.64V42H611.512V38.364C611.512 37.948 611.412 37.628 611.212 37.404C611.02 37.172 610.744 37.056 610.384 37.056C609.992 37.056 609.672 37.192 609.424 37.464C609.176 37.728 609.052 38.12 609.052 38.64V42H607.756V36H609.052V36.72C609.436 36.136 610.008 35.844 610.768 35.844C611.536 35.844 612.104 36.16 612.472 36.792C612.872 36.16 613.484 35.844 614.308 35.844ZM618.983 39.552C619.079 40.008 619.299 40.36 619.643 40.608C619.987 40.848 620.407 40.968 620.903 40.968C621.591 40.968 622.107 40.72 622.451 40.224L623.519 40.848C622.927 41.72 622.051 42.156 620.891 42.156C619.915 42.156 619.127 41.86 618.527 41.268C617.927 40.668 617.627 39.912 617.627 39C617.627 38.104 617.923 37.356 618.515 36.756C619.107 36.148 619.867 35.844 620.795 35.844C621.675 35.844 622.395 36.152 622.955 36.768C623.523 37.384 623.807 38.132 623.807 39.012C623.807 39.148 623.791 39.328 623.759 39.552H618.983ZM618.971 38.496H622.499C622.411 38.008 622.207 37.64 621.887 37.392C621.575 37.144 621.207 37.02 620.783 37.02C620.303 37.02 619.903 37.152 619.583 37.416C619.263 37.68 619.059 38.04 618.971 38.496ZM628.103 35.844C628.791 35.844 629.347 36.064 629.771 36.504C630.195 36.944 630.407 37.548 630.407 38.316V42H629.111V38.448C629.111 38 628.991 37.656 628.751 37.416C628.511 37.176 628.183 37.056 627.767 37.056C627.311 37.056 626.943 37.2 626.663 37.488C626.383 37.768 626.243 38.2 626.243 38.784V42H624.947V36H626.243V36.768C626.635 36.152 627.255 35.844 628.103 35.844Z" fill="#4F4F4F"/>
<path d="M70.405 85L70.4028 202.996M639.998 203.01L69.9978 203" stroke="#EBEBEB"/>
<path d="M44.1133 204.968C43.5453 205.76 42.7493 206.156 41.7253 206.156C40.7013 206.156 39.9053 205.76 39.3373 204.968C38.7693 204.176 38.4853 203.12 38.4853 201.8C38.4853 200.48 38.7693 199.424 39.3373 198.632C39.9053 197.84 40.7013 197.444 41.7253 197.444C42.7493 197.444 43.5453 197.84 44.1133 198.632C44.6813 199.424 44.9653 200.48 44.9653 201.8C44.9653 203.12 44.6813 204.176 44.1133 204.968ZM40.1533 204.212C40.5213 204.78 41.0453 205.064 41.7253 205.064C42.4053 205.064 42.9293 204.78 43.2973 204.212C43.6733 203.644 43.8613 202.84 43.8613 201.8C43.8613 200.76 43.6733 199.956 43.2973 199.388C42.9293 198.812 42.4053 198.524 41.7253 198.524C41.0453 198.524 40.5213 198.808 40.1533 199.376C39.7853 199.944 39.6013 200.752 39.6013 201.8C39.6013 202.84 39.7853 203.644 40.1533 204.212ZM47.8255 201.164C47.2815 201.164 46.8295 200.984 46.4695 200.624C46.1095 200.264 45.9295 199.824 45.9295 199.304C45.9295 198.792 46.1095 198.356 46.4695 197.996C46.8375 197.628 47.2895 197.444 47.8255 197.444C48.3695 197.444 48.8215 197.624 49.1815 197.984C49.5415 198.344 49.7215 198.784 49.7215 199.304C49.7215 199.824 49.5415 200.264 49.1815 200.624C48.8295 200.984 48.3775 201.164 47.8255 201.164ZM47.1295 200.012C47.3135 200.196 47.5455 200.288 47.8255 200.288C48.1055 200.288 48.3335 200.192 48.5095 200C48.6935 199.808 48.7855 199.576 48.7855 199.304C48.7855 199.032 48.6935 198.804 48.5095 198.62C48.3335 198.428 48.1055 198.332 47.8255 198.332C47.5455 198.332 47.3135 198.428 47.1295 198.62C46.9535 198.804 46.8655 199.032 46.8655 199.304C46.8655 199.584 46.9535 199.82 47.1295 200.012ZM46.4935 204.812L52.0735 198.572L52.6615 198.896L47.0695 205.148L46.4935 204.812ZM52.8055 205.604C52.4455 205.964 51.9935 206.144 51.4495 206.144C50.9055 206.144 50.4535 205.964 50.0935 205.604C49.7335 205.244 49.5535 204.804 49.5535 204.284C49.5535 203.764 49.7335 203.324 50.0935 202.964C50.4535 202.604 50.9055 202.424 51.4495 202.424C51.9935 202.424 52.4455 202.604 52.8055 202.964C53.1655 203.324 53.3455 203.764 53.3455 204.284C53.3455 204.804 53.1655 205.244 52.8055 205.604ZM50.7535 204.98C50.9375 205.164 51.1695 205.256 51.4495 205.256C51.7295 205.256 51.9575 205.164 52.1335 204.98C52.3175 204.788 52.4095 204.556 52.4095 204.284C52.4095 204.012 52.3175 203.784 52.1335 203.6C51.9575 203.408 51.7295 203.312 51.4495 203.312C51.1695 203.312 50.9375 203.408 50.7535 203.6C50.5775 203.784 50.4895 204.012 50.4895 204.284C50.4895 204.556 50.5775 204.788 50.7535 204.98Z" fill="#979797"/>
<path d="M32.1664 147V146.088L35.1304 143.064C35.9224 142.272 36.3184 141.592 36.3184 141.024C36.3184 140.552 36.1744 140.184 35.8864 139.92C35.5984 139.656 35.2464 139.524 34.8304 139.524C34.0384 139.524 33.4624 139.9 33.1024 140.652L32.1664 140.1C32.4304 139.556 32.7944 139.144 33.2584 138.864C33.7304 138.584 34.2504 138.444 34.8184 138.444C35.5224 138.444 36.1344 138.676 36.6544 139.14C37.1744 139.604 37.4344 140.228 37.4344 141.012C37.4344 141.86 36.9344 142.784 35.9344 143.784L33.7864 145.92H37.5904V147H32.1664ZM44.1133 145.968C43.5453 146.76 42.7493 147.156 41.7253 147.156C40.7013 147.156 39.9053 146.76 39.3373 145.968C38.7693 145.176 38.4853 144.12 38.4853 142.8C38.4853 141.48 38.7693 140.424 39.3373 139.632C39.9053 138.84 40.7013 138.444 41.7253 138.444C42.7493 138.444 43.5453 138.84 44.1133 139.632C44.6813 140.424 44.9653 141.48 44.9653 142.8C44.9653 144.12 44.6813 145.176 44.1133 145.968ZM40.1533 145.212C40.5213 145.78 41.0453 146.064 41.7253 146.064C42.4053 146.064 42.9293 145.78 43.2973 145.212C43.6733 144.644 43.8613 143.84 43.8613 142.8C43.8613 141.76 43.6733 140.956 43.2973 140.388C42.9293 139.812 42.4053 139.524 41.7253 139.524C41.0453 139.524 40.5213 139.808 40.1533 140.376C39.7853 140.944 39.6013 141.752 39.6013 142.8C39.6013 143.84 39.7853 144.644 40.1533 145.212ZM47.8255 142.164C47.2815 142.164 46.8295 141.984 46.4695 141.624C46.1095 141.264 45.9295 140.824 45.9295 140.304C45.9295 139.792 46.1095 139.356 46.4695 138.996C46.8375 138.628 47.2895 138.444 47.8255 138.444C48.3695 138.444 48.8215 138.624 49.1815 138.984C49.5415 139.344 49.7215 139.784 49.7215 140.304C49.7215 140.824 49.5415 141.264 49.1815 141.624C48.8295 141.984 48.3775 142.164 47.8255 142.164ZM47.1295 141.012C47.3135 141.196 47.5455 141.288 47.8255 141.288C48.1055 141.288 48.3335 141.192 48.5095 141C48.6935 140.808 48.7855 140.576 48.7855 140.304C48.7855 140.032 48.6935 139.804 48.5095 139.62C48.3335 139.428 48.1055 139.332 47.8255 139.332C47.5455 139.332 47.3135 139.428 47.1295 139.62C46.9535 139.804 46.8655 140.032 46.8655 140.304C46.8655 140.584 46.9535 140.82 47.1295 141.012ZM46.4935 145.812L52.0735 139.572L52.6615 139.896L47.0695 146.148L46.4935 145.812ZM52.8055 146.604C52.4455 146.964 51.9935 147.144 51.4495 147.144C50.9055 147.144 50.4535 146.964 50.0935 146.604C49.7335 146.244 49.5535 145.804 49.5535 145.284C49.5535 144.764 49.7335 144.324 50.0935 143.964C50.4535 143.604 50.9055 143.424 51.4495 143.424C51.9935 143.424 52.4455 143.604 52.8055 143.964C53.1655 144.324 53.3455 144.764 53.3455 145.284C53.3455 145.804 53.1655 146.244 52.8055 146.604ZM50.7535 145.98C50.9375 146.164 51.1695 146.256 51.4495 146.256C51.7295 146.256 51.9575 146.164 52.1335 145.98C52.3175 145.788 52.4095 145.556 52.4095 145.284C52.4095 145.012 52.3175 144.784 52.1335 144.6C51.9575 144.408 51.7295 144.312 51.4495 144.312C51.1695 144.312 50.9375 144.408 50.7535 144.6C50.5775 144.784 50.4895 145.012 50.4895 145.284C50.4895 145.556 50.5775 145.788 50.7535 145.98Z" fill="#979797"/>
<path d="M37.6924 86.36V87.404H36.6724V89H35.5564V87.404H31.2724V86.36L34.2844 80.6H35.4844L32.4724 86.36H35.5564V83.984H36.6724V86.36H37.6924ZM44.1133 87.968C43.5453 88.76 42.7493 89.156 41.7253 89.156C40.7013 89.156 39.9053 88.76 39.3373 87.968C38.7693 87.176 38.4853 86.12 38.4853 84.8C38.4853 83.48 38.7693 82.424 39.3373 81.632C39.9053 80.84 40.7013 80.444 41.7253 80.444C42.7493 80.444 43.5453 80.84 44.1133 81.632C44.6813 82.424 44.9653 83.48 44.9653 84.8C44.9653 86.12 44.6813 87.176 44.1133 87.968ZM40.1533 87.212C40.5213 87.78 41.0453 88.064 41.7253 88.064C42.4053 88.064 42.9293 87.78 43.2973 87.212C43.6733 86.644 43.8613 85.84 43.8613 84.8C43.8613 83.76 43.6733 82.956 43.2973 82.388C42.9293 81.812 42.4053 81.524 41.7253 81.524C41.0453 81.524 40.5213 81.808 40.1533 82.376C39.7853 82.944 39.6013 83.752 39.6013 84.8C39.6013 85.84 39.7853 86.644 40.1533 87.212ZM47.8255 84.164C47.2815 84.164 46.8295 83.984 46.4695 83.624C46.1095 83.264 45.9295 82.824 45.9295 82.304C45.9295 81.792 46.1095 81.356 46.4695 80.996C46.8375 80.628 47.2895 80.444 47.8255 80.444C48.3695 80.444 48.8215 80.624 49.1815 80.984C49.5415 81.344 49.7215 81.784 49.7215 82.304C49.7215 82.824 49.5415 83.264 49.1815 83.624C48.8295 83.984 48.3775 84.164 47.8255 84.164ZM47.1295 83.012C47.3135 83.196 47.5455 83.288 47.8255 83.288C48.1055 83.288 48.3335 83.192 48.5095 83C48.6935 82.808 48.7855 82.576 48.7855 82.304C48.7855 82.032 48.6935 81.804 48.5095 81.62C48.3335 81.428 48.1055 81.332 47.8255 81.332C47.5455 81.332 47.3135 81.428 47.1295 81.62C46.9535 81.804 46.8655 82.032 46.8655 82.304C46.8655 82.584 46.9535 82.82 47.1295 83.012ZM46.4935 87.812L52.0735 81.572L52.6615 81.896L47.0695 88.148L46.4935 87.812ZM52.8055 88.604C52.4455 88.964 51.9935 89.144 51.4495 89.144C50.9055 89.144 50.4535 88.964 50.0935 88.604C49.7335 88.244 49.5535 87.804 49.5535 87.284C49.5535 86.764 49.7335 86.324 50.0935 85.964C50.4535 85.604 50.9055 85.424 51.4495 85.424C51.9935 85.424 52.4455 85.604 52.8055 85.964C53.1655 86.324 53.3455 86.764 53.3455 87.284C53.3455 87.804 53.1655 88.244 52.8055 88.604ZM50.7535 87.98C50.9375 88.164 51.1695 88.256 51.4495 88.256C51.7295 88.256 51.9575 88.164 52.1335 87.98C52.3175 87.788 52.4095 87.556 52.4095 87.284C52.4095 87.012 52.3175 86.784 52.1335 86.6C51.9575 86.408 51.7295 86.312 51.4495 86.312C51.1695 86.312 50.9375 86.408 50.7535 86.6C50.5775 86.784 50.4895 87.012 50.4895 87.284C50.4895 87.556 50.5775 87.788 50.7535 87.98Z" fill="#979797"/>
<path d="M59 85H639.936" stroke="#EFF3F9"/>
<path d="M61.2509 143.703H635.337" stroke="#EFF3F9"/>
<path d="M98.7136 218.189V219.317L94.9456 220.865L98.7136 222.401V223.529L93.7576 221.369V220.349L98.7136 218.189ZM104.755 216.665H105.715V225.065H104.611V217.865L102.823 218.393L102.547 217.433L104.755 216.665ZM111.552 220.721C111.96 220.929 112.28 221.209 112.512 221.561C112.744 221.913 112.86 222.313 112.86 222.761C112.86 223.529 112.592 224.133 112.056 224.573C111.52 225.005 110.828 225.221 109.98 225.221C109.14 225.221 108.452 225.005 107.916 224.573C107.38 224.133 107.112 223.529 107.112 222.761C107.112 222.313 107.228 221.913 107.46 221.561C107.692 221.209 108.012 220.929 108.42 220.721C107.732 220.289 107.388 219.677 107.388 218.885C107.388 218.125 107.64 217.541 108.144 217.133C108.656 216.717 109.268 216.509 109.98 216.509C110.7 216.509 111.312 216.717 111.816 217.133C112.328 217.541 112.584 218.125 112.584 218.885C112.584 219.677 112.24 220.289 111.552 220.721ZM109.98 217.577C109.556 217.577 109.2 217.689 108.912 217.913C108.632 218.137 108.492 218.469 108.492 218.909C108.492 219.333 108.636 219.665 108.924 219.905C109.212 220.137 109.564 220.253 109.98 220.253C110.396 220.253 110.748 220.137 111.036 219.905C111.324 219.665 111.468 219.333 111.468 218.909C111.468 218.469 111.328 218.137 111.048 217.913C110.768 217.689 110.412 217.577 109.98 217.577ZM109.98 224.153C110.516 224.153 110.944 224.029 111.264 223.781C111.592 223.525 111.756 223.161 111.756 222.689C111.756 222.225 111.592 221.869 111.264 221.621C110.944 221.365 110.516 221.237 109.98 221.237C109.452 221.237 109.024 221.365 108.696 221.621C108.376 221.869 108.216 222.225 108.216 222.689C108.216 223.161 108.376 223.525 108.696 223.781C109.024 224.029 109.452 224.153 109.98 224.153Z" fill="#979797"/>
<rect x="84.6779" y="200.536" width="21.5272" height="1.63499" fill="#E786D7"/>
<rect x="106.205" y="200.536" width="21.5272" height="1.63499" fill="#7F7FD5"/>
<path d="M166.316 217.869H167.276V226.269H166.172V219.069L164.384 219.597L164.108 218.637L166.316 217.869ZM173.113 221.925C173.521 222.133 173.841 222.413 174.073 222.765C174.305 223.117 174.421 223.517 174.421 223.965C174.421 224.733 174.153 225.337 173.617 225.777C173.081 226.209 172.389 226.425 171.541 226.425C170.701 226.425 170.013 226.209 169.477 225.777C168.941 225.337 168.673 224.733 168.673 223.965C168.673 223.517 168.789 223.117 169.021 222.765C169.253 222.413 169.573 222.133 169.981 221.925C169.293 221.493 168.949 220.881 168.949 220.089C168.949 219.329 169.201 218.745 169.705 218.337C170.217 217.921 170.829 217.713 171.541 217.713C172.261 217.713 172.873 217.921 173.377 218.337C173.889 218.745 174.145 219.329 174.145 220.089C174.145 220.881 173.801 221.493 173.113 221.925ZM171.541 218.781C171.117 218.781 170.761 218.893 170.473 219.117C170.193 219.341 170.053 219.673 170.053 220.113C170.053 220.537 170.197 220.869 170.485 221.109C170.773 221.341 171.125 221.457 171.541 221.457C171.957 221.457 172.309 221.341 172.597 221.109C172.885 220.869 173.029 220.537 173.029 220.113C173.029 219.673 172.889 219.341 172.609 219.117C172.329 218.893 171.973 218.781 171.541 218.781ZM171.541 225.357C172.077 225.357 172.505 225.233 172.825 224.985C173.153 224.729 173.317 224.365 173.317 223.893C173.317 223.429 173.153 223.073 172.825 222.825C172.505 222.569 172.077 222.441 171.541 222.441C171.013 222.441 170.585 222.569 170.257 222.825C169.937 223.073 169.777 223.429 169.777 223.893C169.777 224.365 169.937 224.729 170.257 224.985C170.585 225.233 171.013 225.357 171.541 225.357ZM175.774 223.089V222.081H180.154V223.089H175.774ZM181.482 226.269V225.357L184.446 222.333C185.238 221.541 185.634 220.861 185.634 220.293C185.634 219.821 185.49 219.453 185.202 219.189C184.914 218.925 184.562 218.793 184.146 218.793C183.354 218.793 182.778 219.169 182.418 219.921L181.482 219.369C181.746 218.825 182.11 218.413 182.574 218.133C183.046 217.853 183.566 217.713 184.134 217.713C184.838 217.713 185.45 217.945 185.97 218.409C186.49 218.873 186.75 219.497 186.75 220.281C186.75 221.129 186.25 222.053 185.25 223.053L183.102 225.189H186.906V226.269H181.482ZM189.695 217.869H190.655V226.269H189.551V219.069L187.763 219.597L187.487 218.637L189.695 217.869Z" fill="#979797"/>
<rect x="156.241" y="201.61" width="21.5272" height="1.63499" fill="#E786D7"/>
<path d="M177.768 149.538C177.768 146.776 180.007 144.538 182.768 144.538H194.295C197.057 144.538 199.295 146.776 199.295 149.538V203.245H177.768V149.538Z" fill="#7F7FD5"/>
<path d="M232.862 225.139V224.227L235.826 221.203C236.618 220.411 237.014 219.731 237.014 219.163C237.014 218.691 236.87 218.323 236.582 218.059C236.294 217.795 235.942 217.663 235.526 217.663C234.734 217.663 234.158 218.039 233.798 218.791L232.862 218.239C233.126 217.695 233.49 217.283 233.954 217.003C234.426 216.723 234.946 216.583 235.514 216.583C236.218 216.583 236.83 216.815 237.35 217.279C237.87 217.743 238.13 218.367 238.13 219.151C238.13 219.999 237.63 220.923 236.63 221.923L234.482 224.059H238.286V225.139H232.862ZM241.076 216.739H242.036V225.139H240.932V217.939L239.144 218.467L238.868 217.507L241.076 216.739ZM243.877 221.959V220.951H248.257V221.959H243.877ZM249.585 225.139V224.227L252.549 221.203C253.341 220.411 253.737 219.731 253.737 219.163C253.737 218.691 253.593 218.323 253.305 218.059C253.017 217.795 252.665 217.663 252.249 217.663C251.457 217.663 250.881 218.039 250.521 218.791L249.585 218.239C249.849 217.695 250.213 217.283 250.677 217.003C251.149 216.723 251.669 216.583 252.237 216.583C252.941 216.583 253.553 216.815 254.073 217.279C254.593 217.743 254.853 218.367 254.853 219.151C254.853 219.999 254.353 220.923 253.353 221.923L251.205 224.059H255.009V225.139H249.585ZM261.978 222.499V223.543H260.958V225.139H259.842V223.543H255.558V222.499L258.57 216.739H259.77L256.758 222.499H259.842V220.123H260.958V222.499H261.978Z" fill="#979797"/>
<rect x="225.804" y="200.162" width="21.5272" height="1.63499" fill="#E786D7"/>
<path d="M247.331 148.538C247.331 145.776 249.569 143.538 252.331 143.538H263.858C266.619 143.538 268.858 145.776 268.858 148.538V201.796H247.331V148.538Z" fill="#7F7FD5"/>
<path d="M303.711 225.74V224.828L306.675 221.804C307.467 221.012 307.863 220.332 307.863 219.764C307.863 219.292 307.719 218.924 307.431 218.66C307.143 218.396 306.791 218.264 306.375 218.264C305.583 218.264 305.007 218.64 304.647 219.392L303.711 218.84C303.975 218.296 304.339 217.884 304.803 217.604C305.275 217.324 305.795 217.184 306.363 217.184C307.067 217.184 307.679 217.416 308.199 217.88C308.719 218.344 308.979 218.968 308.979 219.752C308.979 220.6 308.479 221.524 307.479 222.524L305.331 224.66H309.135V225.74H303.711ZM316.104 223.1V224.144H315.084V225.74H313.968V224.144H309.684V223.1L312.696 217.34H313.896L310.884 223.1H313.968V220.724H315.084V223.1H316.104ZM317.257 222.56V221.552H321.637V222.56H317.257ZM322.965 225.74V224.828L325.929 221.804C326.721 221.012 327.117 220.332 327.117 219.764C327.117 219.292 326.973 218.924 326.685 218.66C326.397 218.396 326.045 218.264 325.629 218.264C324.837 218.264 324.261 218.64 323.901 219.392L322.965 218.84C323.229 218.296 323.593 217.884 324.057 217.604C324.529 217.324 325.049 217.184 325.617 217.184C326.321 217.184 326.933 217.416 327.453 217.88C327.973 218.344 328.233 218.968 328.233 219.752C328.233 220.6 327.733 221.524 326.733 222.524L324.585 224.66H328.389V225.74H322.965ZM328.843 217.34H334.087V218.336L331.027 225.74H329.863L332.899 218.396H328.843V217.34Z" fill="#979797"/>
<path d="M297.367 107.539C297.367 104.777 299.606 102.539 302.367 102.539H313.894C316.656 102.539 318.894 104.777 318.894 107.539V202.715H297.367V107.539Z" fill="#E786D7"/>
<path d="M318.898 148.538C318.898 145.776 321.136 143.538 323.898 143.538H335.905C338.666 143.538 340.905 145.776 340.905 148.538V202.536H318.898V148.538Z" fill="#7F7FD5"/>
<path d="M373.004 225.139V224.227L375.968 221.203C376.76 220.411 377.156 219.731 377.156 219.163C377.156 218.691 377.012 218.323 376.724 218.059C376.436 217.795 376.084 217.663 375.668 217.663C374.876 217.663 374.3 218.039 373.94 218.791L373.004 218.239C373.268 217.695 373.632 217.283 374.096 217.003C374.568 216.723 375.088 216.583 375.656 216.583C376.36 216.583 376.972 216.815 377.492 217.279C378.012 217.743 378.272 218.367 378.272 219.151C378.272 219.999 377.772 220.923 376.772 221.923L374.624 224.059H378.428V225.139H373.004ZM378.882 216.739H384.126V217.735L381.066 225.139H379.902L382.938 217.795H378.882V216.739ZM385.085 221.959V220.951H389.465V221.959H385.085ZM394.153 220.183C394.793 220.303 395.317 220.579 395.725 221.011C396.133 221.443 396.337 221.991 396.337 222.655C396.337 223.471 396.057 224.115 395.497 224.587C394.937 225.059 394.257 225.295 393.457 225.295C392.817 225.295 392.249 225.151 391.753 224.863C391.257 224.567 390.905 224.143 390.697 223.591L391.633 223.039C391.881 223.815 392.489 224.203 393.457 224.203C393.977 224.203 394.401 224.067 394.729 223.795C395.057 223.523 395.221 223.143 395.221 222.655C395.221 222.167 395.057 221.787 394.729 221.515C394.401 221.235 393.977 221.095 393.457 221.095H393.169L392.725 220.411L394.669 217.783H390.937V216.739H395.977V217.723L394.153 220.183ZM402.951 224.107C402.383 224.899 401.587 225.295 400.563 225.295C399.539 225.295 398.743 224.899 398.175 224.107C397.607 223.315 397.323 222.259 397.323 220.939C397.323 219.619 397.607 218.563 398.175 217.771C398.743 216.979 399.539 216.583 400.563 216.583C401.587 216.583 402.383 216.979 402.951 217.771C403.519 218.563 403.803 219.619 403.803 220.939C403.803 222.259 403.519 223.315 402.951 224.107ZM398.991 223.351C399.359 223.919 399.883 224.203 400.563 224.203C401.243 224.203 401.767 223.919 402.135 223.351C402.511 222.783 402.699 221.979 402.699 220.939C402.699 219.899 402.511 219.095 402.135 218.527C401.767 217.951 401.243 217.663 400.563 217.663C399.883 217.663 399.359 217.947 398.991 218.515C398.623 219.083 398.439 219.891 398.439 220.939C398.439 221.979 398.623 222.783 398.991 223.351Z" fill="#979797"/>
<path d="M366.93 148.538C366.93 145.776 369.168 143.538 371.93 143.538H383.457C386.218 143.538 388.457 145.776 388.457 148.538V202.245H366.93V148.538Z" fill="#E786D7"/>
<rect x="388.457" y="199.792" width="21.5272" height="1.63499" fill="#7F7FD5"/>
<path d="M446.294 220.109C446.934 220.229 447.458 220.505 447.866 220.937C448.274 221.369 448.478 221.917 448.478 222.581C448.478 223.397 448.198 224.041 447.638 224.513C447.078 224.985 446.398 225.221 445.598 225.221C444.958 225.221 444.39 225.077 443.894 224.789C443.398 224.493 443.046 224.069 442.838 223.517L443.774 222.965C444.022 223.741 444.63 224.129 445.598 224.129C446.118 224.129 446.542 223.993 446.87 223.721C447.198 223.449 447.362 223.069 447.362 222.581C447.362 222.093 447.198 221.713 446.87 221.441C446.542 221.161 446.118 221.021 445.598 221.021H445.31L444.866 220.337L446.81 217.709H443.078V216.665H448.118V217.649L446.294 220.109ZM455.092 224.033C454.524 224.825 453.728 225.221 452.704 225.221C451.68 225.221 450.884 224.825 450.316 224.033C449.748 223.241 449.464 222.185 449.464 220.865C449.464 219.545 449.748 218.489 450.316 217.697C450.884 216.905 451.68 216.509 452.704 216.509C453.728 216.509 454.524 216.905 455.092 217.697C455.66 218.489 455.944 219.545 455.944 220.865C455.944 222.185 455.66 223.241 455.092 224.033ZM451.132 223.277C451.5 223.845 452.024 224.129 452.704 224.129C453.384 224.129 453.908 223.845 454.276 223.277C454.652 222.709 454.84 221.905 454.84 220.865C454.84 219.825 454.652 219.021 454.276 218.453C453.908 217.877 453.384 217.589 452.704 217.589C452.024 217.589 451.5 217.873 451.132 218.441C450.764 219.009 450.58 219.817 450.58 220.865C450.58 221.905 450.764 222.709 451.132 223.277ZM457.383 221.885V220.877H461.763V221.885H457.383ZM466.451 220.109C467.091 220.229 467.615 220.505 468.023 220.937C468.431 221.369 468.635 221.917 468.635 222.581C468.635 223.397 468.355 224.041 467.795 224.513C467.235 224.985 466.555 225.221 465.755 225.221C465.115 225.221 464.547 225.077 464.051 224.789C463.555 224.493 463.203 224.069 462.995 223.517L463.931 222.965C464.179 223.741 464.787 224.129 465.755 224.129C466.275 224.129 466.699 223.993 467.027 223.721C467.355 223.449 467.519 223.069 467.519 222.581C467.519 222.093 467.355 221.713 467.027 221.441C466.699 221.161 466.275 221.021 465.755 221.021H465.467L465.023 220.337L466.967 217.709H463.235V216.665H468.275V217.649L466.451 220.109ZM472.262 219.941C473.054 219.941 473.722 220.177 474.266 220.649C474.818 221.113 475.094 221.757 475.094 222.581C475.094 223.397 474.814 224.041 474.254 224.513C473.694 224.985 473.014 225.221 472.214 225.221C471.574 225.221 471.002 225.069 470.498 224.765C469.994 224.453 469.642 224.005 469.442 223.421L470.39 222.881C470.502 223.289 470.718 223.601 471.038 223.817C471.358 224.025 471.75 224.129 472.214 224.129C472.742 224.129 473.17 223.993 473.498 223.721C473.826 223.449 473.99 223.069 473.99 222.581C473.99 222.093 473.826 221.713 473.498 221.441C473.17 221.161 472.75 221.021 472.238 221.021H469.862L470.174 216.665H474.77V217.709H471.182L471.038 219.941H472.262Z" fill="#979797"/>
<rect x="437.493" y="200.536" width="21.5272" height="1.63499" fill="#E786D7"/>
<rect x="459.02" y="200.536" width="21.5272" height="1.63499" fill="#7F7FD5"/>
<path d="M519.045 220.348C519.685 220.468 520.209 220.744 520.617 221.176C521.025 221.608 521.229 222.156 521.229 222.82C521.229 223.636 520.949 224.28 520.389 224.752C519.829 225.224 519.149 225.46 518.349 225.46C517.709 225.46 517.141 225.316 516.645 225.028C516.149 224.732 515.797 224.308 515.589 223.756L516.525 223.204C516.773 223.98 517.381 224.368 518.349 224.368C518.869 224.368 519.293 224.232 519.621 223.96C519.949 223.688 520.113 223.308 520.113 222.82C520.113 222.332 519.949 221.952 519.621 221.68C519.293 221.4 518.869 221.26 518.349 221.26H518.061L517.617 220.576L519.561 217.948H515.829V216.904H520.869V217.888L519.045 220.348ZM524.857 220.18C525.649 220.18 526.317 220.416 526.861 220.888C527.413 221.352 527.689 221.996 527.689 222.82C527.689 223.636 527.409 224.28 526.849 224.752C526.289 225.224 525.609 225.46 524.809 225.46C524.169 225.46 523.597 225.308 523.093 225.004C522.589 224.692 522.237 224.244 522.037 223.66L522.985 223.12C523.097 223.528 523.313 223.84 523.633 224.056C523.953 224.264 524.345 224.368 524.809 224.368C525.337 224.368 525.765 224.232 526.093 223.96C526.421 223.688 526.585 223.308 526.585 222.82C526.585 222.332 526.421 221.952 526.093 221.68C525.765 221.4 525.345 221.26 524.833 221.26H522.457L522.769 216.904H527.365V217.948H523.777L523.633 220.18H524.857ZM529.032 222.124V221.116H533.412V222.124H529.032ZM541.016 222.664V223.708H539.996V225.304H538.88V223.708H534.596V222.664L537.608 216.904H538.808L535.796 222.664H538.88V220.288H539.996V222.664H541.016ZM547.437 224.272C546.869 225.064 546.073 225.46 545.049 225.46C544.025 225.46 543.229 225.064 542.661 224.272C542.093 223.48 541.809 222.424 541.809 221.104C541.809 219.784 542.093 218.728 542.661 217.936C543.229 217.144 544.025 216.748 545.049 216.748C546.073 216.748 546.869 217.144 547.437 217.936C548.005 218.728 548.289 219.784 548.289 221.104C548.289 222.424 548.005 223.48 547.437 224.272ZM543.477 223.516C543.845 224.084 544.369 224.368 545.049 224.368C545.729 224.368 546.253 224.084 546.621 223.516C546.997 222.948 547.185 222.144 547.185 221.104C547.185 220.064 546.997 219.26 546.621 218.692C546.253 218.116 545.729 217.828 545.049 217.828C544.369 217.828 543.845 218.112 543.477 218.68C543.109 219.248 542.925 220.056 542.925 221.104C542.925 222.144 543.109 222.948 543.477 223.516Z" fill="#979797"/>
<path d="M507.055 177.537C507.055 174.775 509.294 172.537 512.055 172.537H523.582C526.344 172.537 528.582 174.775 528.582 177.537V202.41H507.055V177.537Z" fill="#E786D7"/>
<rect x="530.583" y="200.775" width="21.5272" height="1.63499" fill="#7F7FD5"/>
<path d="M590.863 219.637L595.819 221.797V222.817L590.863 224.977V223.849L594.631 222.313L590.863 220.765V219.637ZM603.193 223.873V224.917H602.173V226.513H601.057V224.917H596.773V223.873L599.785 218.113H600.985L597.973 223.873H601.057V221.497H602.173V223.873H603.193ZM609.614 225.481C609.046 226.273 608.25 226.669 607.226 226.669C606.202 226.669 605.406 226.273 604.838 225.481C604.27 224.689 603.986 223.633 603.986 222.313C603.986 220.993 604.27 219.937 604.838 219.145C605.406 218.353 606.202 217.957 607.226 217.957C608.25 217.957 609.046 218.353 609.614 219.145C610.182 219.937 610.466 220.993 610.466 222.313C610.466 223.633 610.182 224.689 609.614 225.481ZM605.654 224.725C606.022 225.293 606.546 225.577 607.226 225.577C607.906 225.577 608.43 225.293 608.798 224.725C609.174 224.157 609.362 223.353 609.362 222.313C609.362 221.273 609.174 220.469 608.798 219.901C608.43 219.325 607.906 219.037 607.226 219.037C606.546 219.037 606.022 219.321 605.654 219.889C605.286 220.457 605.102 221.265 605.102 222.313C605.102 223.353 605.286 224.157 605.654 224.725Z" fill="#979797"/>
<rect x="582.077" y="200.985" width="21.5272" height="1.63499" fill="#E786D7"/>
<path d="M603.604 184.537C603.604 181.775 605.842 179.537 608.604 179.537H620.131C622.892 179.537 625.131 181.775 625.131 184.537V202.619H603.604V184.537Z" fill="#7F7FD5"/>
<path d="M55.2935 85.46H60.9071" stroke="#979797"/>
<path d="M55.2933 144.165H60.907" stroke="#979797"/>
<path d="M55.2933 203.28H60.907" stroke="#979797"/>
<path d="M142.908 85L142.908 203" stroke="#EFF3F9"/>
<path d="M213.856 85L213.856 203" stroke="#EFF3F9"/>
<path d="M284.803 85L284.803 203" stroke="#EFF3F9"/>
<path d="M355.75 85L355.75 203" stroke="#EFF3F9"/>
<path d="M426.698 85L426.698 203" stroke="#EFF3F9"/>
<path d="M497.645 85L497.645 203" stroke="#EFF3F9"/>
<path d="M568.592 85L568.592 203" stroke="#EFF3F9"/>
<path d="M639.54 85L639.54 203" stroke="#EFF3F9"/>
</svg>
