<svg width="341" height="148" viewBox="0 0 341 148" fill="none" xmlns="http://www.w3.org/2000/svg">
<rect x="0.5" y="0.5" width="340" height="147" rx="12.5" fill="#FDFDFF" stroke="#EBEBEB"/>
<path d="M33.66 35.64H28.06V38.96H33.5V41.6H28.06V47H25.3V33H33.66V35.64ZM38.1311 38.72C38.3711 38.08 38.7644 37.6 39.3111 37.28C39.8711 36.96 40.4911 36.8 41.1711 36.8V39.68C40.3844 39.5867 39.6778 39.7467 39.0511 40.16C38.4378 40.5733 38.1311 41.26 38.1311 42.22V47H35.5511V37H38.1311V38.72ZM43.96 35.8C43.5333 35.8 43.16 35.6467 42.84 35.34C42.5333 35.02 42.38 34.6467 42.38 34.22C42.38 33.7933 42.5333 33.42 42.84 33.1C43.16 32.78 43.5333 32.62 43.96 32.62C44.4 32.62 44.7733 32.78 45.08 33.1C45.4 33.42 45.56 33.7933 45.56 34.22C45.56 34.6467 45.4 35.02 45.08 35.34C44.7733 35.6467 44.4 35.8 43.96 35.8ZM42.68 47V37H45.26V47H42.68ZM49.8014 43.06C50.1481 44.3133 51.0881 44.94 52.6214 44.94C53.6081 44.94 54.3547 44.6067 54.8614 43.94L56.9414 45.14C55.9547 46.5667 54.5014 47.28 52.5814 47.28C50.9281 47.28 49.6014 46.78 48.6014 45.78C47.6014 44.78 47.1014 43.52 47.1014 42C47.1014 40.4933 47.5947 39.24 48.5814 38.24C49.5681 37.2267 50.8347 36.72 52.3814 36.72C53.8481 36.72 55.0547 37.2267 56.0014 38.24C56.9614 39.2533 57.4414 40.5067 57.4414 42C57.4414 42.3333 57.4081 42.6867 57.3414 43.06H49.8014ZM49.7614 41.06H54.8614C54.7147 40.38 54.4081 39.8733 53.9414 39.54C53.4881 39.2067 52.9681 39.04 52.3814 39.04C51.6881 39.04 51.1147 39.22 50.6614 39.58C50.2081 39.9267 49.9081 40.42 49.7614 41.06ZM64.8025 36.72C65.8958 36.72 66.7958 37.0867 67.5025 37.82C68.2225 38.5533 68.5825 39.5667 68.5825 40.86V47H66.0025V41.18C66.0025 40.5133 65.8225 40.0067 65.4625 39.66C65.1025 39.3 64.6225 39.12 64.0225 39.12C63.3558 39.12 62.8225 39.3267 62.4225 39.74C62.0225 40.1533 61.8225 40.7733 61.8225 41.6V47H59.2425V37H61.8225V38.12C62.4492 37.1867 63.4425 36.72 64.8025 36.72ZM78.3655 33H80.9455V47H78.3655V45.82C77.6055 46.7933 76.5255 47.28 75.1255 47.28C73.7788 47.28 72.6255 46.7733 71.6655 45.76C70.7188 44.7333 70.2455 43.48 70.2455 42C70.2455 40.52 70.7188 39.2733 71.6655 38.26C72.6255 37.2333 73.7788 36.72 75.1255 36.72C76.5255 36.72 77.6055 37.2067 78.3655 38.18V33ZM73.6055 44.04C74.1388 44.56 74.8055 44.82 75.6055 44.82C76.4055 44.82 77.0655 44.56 77.5855 44.04C78.1055 43.5067 78.3655 42.8267 78.3655 42C78.3655 41.1733 78.1055 40.5 77.5855 39.98C77.0655 39.4467 76.4055 39.18 75.6055 39.18C74.8055 39.18 74.1388 39.4467 73.6055 39.98C73.0855 40.5 72.8255 41.1733 72.8255 42C72.8255 42.8267 73.0855 43.5067 73.6055 44.04ZM85.6069 39.84C85.6069 40.1067 85.7802 40.3267 86.1269 40.5C86.4869 40.66 86.9202 40.8067 87.4269 40.94C87.9335 41.06 88.4402 41.22 88.9469 41.42C89.4535 41.6067 89.8802 41.9267 90.2269 42.38C90.5869 42.8333 90.7669 43.4 90.7669 44.08C90.7669 45.1067 90.3802 45.9 89.6069 46.46C88.8469 47.0067 87.8935 47.28 86.7469 47.28C84.6935 47.28 83.2935 46.4867 82.5469 44.9L84.7869 43.64C85.0802 44.5067 85.7335 44.94 86.7469 44.94C87.6669 44.94 88.1269 44.6533 88.1269 44.08C88.1269 43.8133 87.9469 43.6 87.5869 43.44C87.2402 43.2667 86.8135 43.1133 86.3069 42.98C85.8002 42.8467 85.2935 42.68 84.7869 42.48C84.2802 42.28 83.8469 41.9667 83.4869 41.54C83.1402 41.1 82.9669 40.5533 82.9669 39.9C82.9669 38.9133 83.3269 38.14 84.0469 37.58C84.7802 37.0067 85.6869 36.72 86.7669 36.72C87.5802 36.72 88.3202 36.9067 88.9869 37.28C89.6535 37.64 90.1802 38.16 90.5669 38.84L88.3669 40.04C88.0469 39.36 87.5135 39.02 86.7669 39.02C86.4335 39.02 86.1535 39.0933 85.9269 39.24C85.7135 39.3867 85.6069 39.5867 85.6069 39.84Z" fill="#4F4F4F"/>
<path d="M249.455 108.16V109.82H245.975V113.3H244.315V109.82H240.855V108.16H244.315V104.7H245.975V108.16H249.455ZM265.874 114.28C264.927 115.6 263.6 116.26 261.894 116.26C260.187 116.26 258.86 115.6 257.914 114.28C256.967 112.96 256.494 111.2 256.494 109C256.494 106.8 256.967 105.04 257.914 103.72C258.86 102.4 260.187 101.74 261.894 101.74C263.6 101.74 264.927 102.4 265.874 103.72C266.82 105.04 267.294 106.8 267.294 109C267.294 111.2 266.82 112.96 265.874 114.28ZM259.274 113.02C259.887 113.967 260.76 114.44 261.894 114.44C263.027 114.44 263.9 113.967 264.514 113.02C265.14 112.073 265.454 110.733 265.454 109C265.454 107.267 265.14 105.927 264.514 104.98C263.9 104.02 263.027 103.54 261.894 103.54C260.76 103.54 259.887 104.013 259.274 104.96C258.66 105.907 258.354 107.253 258.354 109C258.354 110.733 258.66 112.073 259.274 113.02ZM271.506 113.94L270.206 118.8H268.706L269.506 113.94H271.506ZM273.005 102H281.745V103.66L276.645 116H274.705L279.765 103.76H273.005V102ZM286.709 107.94C285.803 107.94 285.049 107.64 284.449 107.04C283.849 106.44 283.549 105.707 283.549 104.84C283.549 103.987 283.849 103.26 284.449 102.66C285.063 102.047 285.816 101.74 286.709 101.74C287.616 101.74 288.369 102.04 288.969 102.64C289.569 103.24 289.869 103.973 289.869 104.84C289.869 105.707 289.569 106.44 288.969 107.04C288.383 107.64 287.629 107.94 286.709 107.94ZM285.549 106.02C285.856 106.327 286.243 106.48 286.709 106.48C287.176 106.48 287.556 106.32 287.849 106C288.156 105.68 288.309 105.293 288.309 104.84C288.309 104.387 288.156 104.007 287.849 103.7C287.556 103.38 287.176 103.22 286.709 103.22C286.243 103.22 285.856 103.38 285.549 103.7C285.256 104.007 285.109 104.387 285.109 104.84C285.109 105.307 285.256 105.7 285.549 106.02ZM284.489 114.02L293.789 103.62L294.769 104.16L285.449 114.58L284.489 114.02ZM295.009 115.34C294.409 115.94 293.656 116.24 292.749 116.24C291.843 116.24 291.089 115.94 290.489 115.34C289.889 114.74 289.589 114.007 289.589 113.14C289.589 112.273 289.889 111.54 290.489 110.94C291.089 110.34 291.843 110.04 292.749 110.04C293.656 110.04 294.409 110.34 295.009 110.94C295.609 111.54 295.909 112.273 295.909 113.14C295.909 114.007 295.609 114.74 295.009 115.34ZM291.589 114.3C291.896 114.607 292.283 114.76 292.749 114.76C293.216 114.76 293.596 114.607 293.889 114.3C294.196 113.98 294.349 113.593 294.349 113.14C294.349 112.687 294.196 112.307 293.889 112C293.596 111.68 293.216 111.52 292.749 111.52C292.283 111.52 291.896 111.68 291.589 112C291.296 112.307 291.149 112.687 291.149 113.14C291.149 113.593 291.296 113.98 291.589 114.3Z" fill="#979797"/>
<path d="M24.72 116V114.48L29.66 109.44C30.98 108.12 31.64 106.987 31.64 106.04C31.64 105.253 31.4 104.64 30.92 104.2C30.44 103.76 29.8533 103.54 29.16 103.54C27.84 103.54 26.88 104.167 26.28 105.42L24.72 104.5C25.16 103.593 25.7667 102.907 26.54 102.44C27.3267 101.973 28.1933 101.74 29.14 101.74C30.3133 101.74 31.3333 102.127 32.2 102.9C33.0667 103.673 33.5 104.713 33.5 106.02C33.5 107.433 32.6667 108.973 31 110.64L27.42 114.2H33.76V116H24.72ZM34.5163 102H43.2563V103.66L38.1563 116H36.2163L41.2763 103.76H34.5163V102ZM47.9795 102H49.5795V116H47.7395V104L44.7595 104.88L44.2995 103.28L47.9795 102ZM62.9884 105.74C64.3884 105.74 65.5818 106.253 66.5684 107.28C67.5551 108.293 68.0484 109.533 68.0484 111C68.0484 112.467 67.5551 113.713 66.5684 114.74C65.5818 115.753 64.3884 116.26 62.9884 116.26C61.3351 116.26 60.0751 115.6 59.2084 114.28V120H57.4684V106H59.2084V107.72C60.0751 106.4 61.3351 105.74 62.9884 105.74ZM62.7684 114.58C63.7684 114.58 64.6084 114.24 65.2884 113.56C65.9684 112.867 66.3084 112.013 66.3084 111C66.3084 109.987 65.9684 109.14 65.2884 108.46C64.6084 107.767 63.7684 107.42 62.7684 107.42C61.7551 107.42 60.9084 107.767 60.2284 108.46C59.5484 109.14 59.2084 109.987 59.2084 111C59.2084 112.013 59.5484 112.867 60.2284 113.56C60.9084 114.24 61.7551 114.58 62.7684 114.58ZM71.3447 111.8C71.518 112.693 71.9247 113.387 72.5647 113.88C73.218 114.373 74.018 114.62 74.9647 114.62C76.2847 114.62 77.2447 114.133 77.8447 113.16L79.3247 114C78.3514 115.507 76.8847 116.26 74.9247 116.26C73.338 116.26 72.0447 115.767 71.0447 114.78C70.058 113.78 69.5647 112.52 69.5647 111C69.5647 109.493 70.0514 108.24 71.0247 107.24C71.998 106.24 73.258 105.74 74.8047 105.74C76.2714 105.74 77.4647 106.26 78.3847 107.3C79.318 108.327 79.7847 109.567 79.7847 111.02C79.7847 111.273 79.7647 111.533 79.7247 111.8H71.3447ZM74.8047 107.38C73.8714 107.38 73.098 107.647 72.4847 108.18C71.8714 108.7 71.4914 109.4 71.3447 110.28H78.0247C77.878 109.333 77.5047 108.613 76.9047 108.12C76.3047 107.627 75.6047 107.38 74.8047 107.38ZM90.2053 114.74C89.1786 115.753 87.932 116.26 86.4653 116.26C84.9986 116.26 83.752 115.753 82.7253 114.74C81.712 113.727 81.2053 112.48 81.2053 111C81.2053 109.52 81.712 108.273 82.7253 107.26C83.752 106.247 84.9986 105.74 86.4653 105.74C87.932 105.74 89.1786 106.247 90.2053 107.26C91.232 108.273 91.7453 109.52 91.7453 111C91.7453 112.48 91.232 113.727 90.2053 114.74ZM86.4653 114.56C87.4653 114.56 88.3053 114.22 88.9853 113.54C89.6653 112.86 90.0053 112.013 90.0053 111C90.0053 109.987 89.6653 109.14 88.9853 108.46C88.3053 107.78 87.4653 107.44 86.4653 107.44C85.4786 107.44 84.6453 107.78 83.9653 108.46C83.2853 109.14 82.9453 109.987 82.9453 111C82.9453 112.013 83.2853 112.86 83.9653 113.54C84.6453 114.22 85.4786 114.56 86.4653 114.56ZM99.3166 105.74C100.717 105.74 101.91 106.253 102.897 107.28C103.883 108.293 104.377 109.533 104.377 111C104.377 112.467 103.883 113.713 102.897 114.74C101.91 115.753 100.717 116.26 99.3166 116.26C97.6632 116.26 96.4032 115.6 95.5366 114.28V120H93.7966V106H95.5366V107.72C96.4032 106.4 97.6632 105.74 99.3166 105.74ZM99.0966 114.58C100.097 114.58 100.937 114.24 101.617 113.56C102.297 112.867 102.637 112.013 102.637 111C102.637 109.987 102.297 109.14 101.617 108.46C100.937 107.767 100.097 107.42 99.0966 107.42C98.0832 107.42 97.2366 107.767 96.5566 108.46C95.8766 109.14 95.5366 109.987 95.5366 111C95.5366 112.013 95.8766 112.867 96.5566 113.56C97.2366 114.24 98.0832 114.58 99.0966 114.58ZM106.453 116V101.4H108.193V116H106.453ZM112.067 111.8C112.241 112.693 112.647 113.387 113.287 113.88C113.941 114.373 114.741 114.62 115.687 114.62C117.007 114.62 117.967 114.133 118.567 113.16L120.047 114C119.074 115.507 117.607 116.26 115.647 116.26C114.061 116.26 112.767 115.767 111.767 114.78C110.781 113.78 110.287 112.52 110.287 111C110.287 109.493 110.774 108.24 111.747 107.24C112.721 106.24 113.981 105.74 115.527 105.74C116.994 105.74 118.187 106.26 119.107 107.3C120.041 108.327 120.507 109.567 120.507 111.02C120.507 111.273 120.487 111.533 120.447 111.8H112.067ZM115.527 107.38C114.594 107.38 113.821 107.647 113.207 108.18C112.594 108.7 112.214 109.4 112.067 110.28H118.747C118.601 109.333 118.227 108.613 117.627 108.12C117.027 107.627 116.327 107.38 115.527 107.38Z" fill="#4F4F4F"/>
<circle cx="293.5" cy="40.5" r="2.5" transform="rotate(-90 293.5 40.5)" fill="#979797"/>
<circle cx="303.5" cy="40.5" r="2.5" transform="rotate(-90 303.5 40.5)" fill="#979797"/>
<circle cx="314.5" cy="40.5" r="2.5" transform="rotate(-90 314.5 40.5)" fill="#979797"/>
<path d="M306 108.077L311.5 103M311.5 103L317 108.077M311.5 103L311.5 115" stroke="#7F7FD5" stroke-width="2" stroke-linecap="round" stroke-linejoin="round"/>
</svg>
